ISO-10303-21;
HEADER;
/* Generated by software containing ST-Developer
 * from STEP Tools, Inc. (www.steptools.com) 
 */

FILE_DESCRIPTION(
/* description */ (''),
/* implementation_level */ '2;1');

FILE_NAME(
/* name */ 'Bottom.step',
/* time_stamp */ '2026-06-09T19:00:54+02:00',
/* author */ (''),
/* organization */ (''),
/* preprocessor_version */ 'ST-DEVELOPER v20.1',
/* originating_system */ 'Autodesk Translation Framework v15.8.0.0',
/* authorisation */ '');

FILE_SCHEMA (('AUTOMOTIVE_DESIGN { 1 0 10303 214 3 1 1 }'));
ENDSEC;

DATA;
#10=MECHANICAL_DESIGN_GEOMETRIC_PRESENTATION_REPRESENTATION('',(#13),#1631);
#11=SHAPE_REPRESENTATION_RELATIONSHIP('SRR','None',#1638,#12);
#12=ADVANCED_BREP_SHAPE_REPRESENTATION('',(#14),#1630);
#13=STYLED_ITEM('',(#1647),#14);
#14=MANIFOLD_SOLID_BREP('Body1',#953);
#15=CYLINDRICAL_SURFACE('',#980,1.);
#16=CYLINDRICAL_SURFACE('',#985,1.);
#17=CYLINDRICAL_SURFACE('',#990,1.);
#18=CYLINDRICAL_SURFACE('',#995,1.);
#19=CYLINDRICAL_SURFACE('',#997,4.);
#20=CYLINDRICAL_SURFACE('',#1000,4.);
#21=CYLINDRICAL_SURFACE('',#1002,4.);
#22=CYLINDRICAL_SURFACE('',#1007,4.);
#23=CYLINDRICAL_SURFACE('',#1010,3.50000000000001);
#24=CYLINDRICAL_SURFACE('',#1013,3.50000000000001);
#25=CYLINDRICAL_SURFACE('',#1015,2.34999999999999);
#26=CYLINDRICAL_SURFACE('',#1017,2.34999999999999);
#27=CYLINDRICAL_SURFACE('',#1019,2.35000000000003);
#28=CYLINDRICAL_SURFACE('',#1021,2.34999999999999);
#29=CYLINDRICAL_SURFACE('',#1043,5.);
#30=CYLINDRICAL_SURFACE('',#1046,2.5);
#31=CYLINDRICAL_SURFACE('',#1049,5.);
#32=CYLINDRICAL_SURFACE('',#1052,2.5);
#33=CYLINDRICAL_SURFACE('',#1055,2.5);
#34=CYLINDRICAL_SURFACE('',#1058,2.5);
#35=CYLINDRICAL_SURFACE('',#1061,2.5);
#36=CYLINDRICAL_SURFACE('',#1064,2.5);
#37=TOROIDAL_SURFACE('',#976,3.,1.);
#38=TOROIDAL_SURFACE('',#982,3.,1.);
#39=TOROIDAL_SURFACE('',#987,3.,1.);
#40=TOROIDAL_SURFACE('',#992,3.,1.);
#41=FACE_BOUND('',#118,.T.);
#42=FACE_BOUND('',#119,.T.);
#43=FACE_BOUND('',#120,.T.);
#44=FACE_BOUND('',#121,.T.);
#45=FACE_BOUND('',#122,.T.);
#46=FACE_BOUND('',#137,.T.);
#47=FACE_BOUND('',#151,.T.);
#48=FACE_BOUND('',#158,.T.);
#49=FACE_BOUND('',#159,.T.);
#50=FACE_BOUND('',#160,.T.);
#51=FACE_BOUND('',#161,.T.);
#52=FACE_BOUND('',#162,.T.);
#53=FACE_BOUND('',#164,.T.);
#54=FACE_BOUND('',#165,.T.);
#55=FACE_BOUND('',#166,.T.);
#56=FACE_BOUND('',#167,.T.);
#57=FACE_BOUND('',#168,.T.);
#58=FACE_BOUND('',#169,.T.);
#59=FACE_BOUND('',#170,.T.);
#60=FACE_BOUND('',#171,.T.);
#61=FACE_OUTER_BOUND('',#117,.T.);
#62=FACE_OUTER_BOUND('',#123,.T.);
#63=FACE_OUTER_BOUND('',#124,.T.);
#64=FACE_OUTER_BOUND('',#125,.T.);
#65=FACE_OUTER_BOUND('',#126,.T.);
#66=FACE_OUTER_BOUND('',#127,.T.);
#67=FACE_OUTER_BOUND('',#128,.T.);
#68=FACE_OUTER_BOUND('',#129,.T.);
#69=FACE_OUTER_BOUND('',#130,.T.);
#70=FACE_OUTER_BOUND('',#131,.T.);
#71=FACE_OUTER_BOUND('',#132,.T.);
#72=FACE_OUTER_BOUND('',#133,.T.);
#73=FACE_OUTER_BOUND('',#134,.T.);
#74=FACE_OUTER_BOUND('',#135,.T.);
#75=FACE_OUTER_BOUND('',#136,.T.);
#76=FACE_OUTER_BOUND('',#138,.T.);
#77=FACE_OUTER_BOUND('',#139,.T.);
#78=FACE_OUTER_BOUND('',#140,.T.);
#79=FACE_OUTER_BOUND('',#141,.T.);
#80=FACE_OUTER_BOUND('',#142,.T.);
#81=FACE_OUTER_BOUND('',#143,.T.);
#82=FACE_OUTER_BOUND('',#144,.T.);
#83=FACE_OUTER_BOUND('',#145,.T.);
#84=FACE_OUTER_BOUND('',#146,.T.);
#85=FACE_OUTER_BOUND('',#147,.T.);
#86=FACE_OUTER_BOUND('',#148,.T.);
#87=FACE_OUTER_BOUND('',#149,.T.);
#88=FACE_OUTER_BOUND('',#150,.T.);
#89=FACE_OUTER_BOUND('',#152,.T.);
#90=FACE_OUTER_BOUND('',#153,.T.);
#91=FACE_OUTER_BOUND('',#154,.T.);
#92=FACE_OUTER_BOUND('',#155,.T.);
#93=FACE_OUTER_BOUND('',#156,.T.);
#94=FACE_OUTER_BOUND('',#157,.T.);
#95=FACE_OUTER_BOUND('',#163,.T.);
#96=FACE_OUTER_BOUND('',#172,.T.);
#97=FACE_OUTER_BOUND('',#173,.T.);
#98=FACE_OUTER_BOUND('',#174,.T.);
#99=FACE_OUTER_BOUND('',#175,.T.);
#100=FACE_OUTER_BOUND('',#176,.T.);
#101=FACE_OUTER_BOUND('',#177,.T.);
#102=FACE_OUTER_BOUND('',#178,.T.);
#103=FACE_OUTER_BOUND('',#179,.T.);
#104=FACE_OUTER_BOUND('',#180,.T.);
#105=FACE_OUTER_BOUND('',#181,.T.);
#106=FACE_OUTER_BOUND('',#182,.T.);
#107=FACE_OUTER_BOUND('',#183,.T.);
#108=FACE_OUTER_BOUND('',#184,.T.);
#109=FACE_OUTER_BOUND('',#185,.T.);
#110=FACE_OUTER_BOUND('',#186,.T.);
#111=FACE_OUTER_BOUND('',#187,.T.);
#112=FACE_OUTER_BOUND('',#188,.T.);
#113=FACE_OUTER_BOUND('',#189,.T.);
#114=FACE_OUTER_BOUND('',#190,.T.);
#115=FACE_OUTER_BOUND('',#191,.T.);
#116=FACE_OUTER_BOUND('',#192,.T.);
#117=EDGE_LOOP('',(#611,#612,#613,#614,#615,#616,#617,#618));
#118=EDGE_LOOP('',(#619,#620,#621,#622,#623,#624,#625,#626));
#119=EDGE_LOOP('',(#627));
#120=EDGE_LOOP('',(#628));
#121=EDGE_LOOP('',(#629));
#122=EDGE_LOOP('',(#630));
#123=EDGE_LOOP('',(#631,#632,#633,#634));
#124=EDGE_LOOP('',(#635,#636,#637,#638));
#125=EDGE_LOOP('',(#639,#640,#641,#642));
#126=EDGE_LOOP('',(#643,#644,#645,#646));
#127=EDGE_LOOP('',(#647,#648,#649,#650));
#128=EDGE_LOOP('',(#651,#652,#653,#654));
#129=EDGE_LOOP('',(#655,#656,#657,#658));
#130=EDGE_LOOP('',(#659,#660,#661,#662));
#131=EDGE_LOOP('',(#663,#664,#665,#666));
#132=EDGE_LOOP('',(#667,#668,#669,#670));
#133=EDGE_LOOP('',(#671,#672,#673,#674));
#134=EDGE_LOOP('',(#675,#676,#677,#678));
#135=EDGE_LOOP('',(#679,#680,#681,#682));
#136=EDGE_LOOP('',(#683,#684,#685,#686));
#137=EDGE_LOOP('',(#687,#688,#689,#690));
#138=EDGE_LOOP('',(#691,#692,#693,#694));
#139=EDGE_LOOP('',(#695,#696,#697,#698));
#140=EDGE_LOOP('',(#699,#700,#701,#702));
#141=EDGE_LOOP('',(#703,#704,#705,#706));
#142=EDGE_LOOP('',(#707,#708,#709,#710));
#143=EDGE_LOOP('',(#711,#712,#713,#714));
#144=EDGE_LOOP('',(#715,#716,#717,#718));
#145=EDGE_LOOP('',(#719,#720,#721,#722));
#146=EDGE_LOOP('',(#723,#724,#725,#726));
#147=EDGE_LOOP('',(#727,#728,#729,#730));
#148=EDGE_LOOP('',(#731,#732,#733,#734));
#149=EDGE_LOOP('',(#735,#736,#737,#738,#739));
#150=EDGE_LOOP('',(#740,#741,#742,#743));
#151=EDGE_LOOP('',(#744,#745,#746,#747));
#152=EDGE_LOOP('',(#748,#749,#750,#751,#752));
#153=EDGE_LOOP('',(#753,#754,#755,#756));
#154=EDGE_LOOP('',(#757,#758,#759,#760));
#155=EDGE_LOOP('',(#761,#762,#763,#764));
#156=EDGE_LOOP('',(#765,#766,#767,#768));
#157=EDGE_LOOP('',(#769,#770,#771,#772,#773,#774,#775,#776));
#158=EDGE_LOOP('',(#777,#778,#779,#780,#781,#782,#783,#784));
#159=EDGE_LOOP('',(#785));
#160=EDGE_LOOP('',(#786));
#161=EDGE_LOOP('',(#787));
#162=EDGE_LOOP('',(#788));
#163=EDGE_LOOP('',(#789,#790,#791,#792,#793,#794));
#164=EDGE_LOOP('',(#795));
#165=EDGE_LOOP('',(#796));
#166=EDGE_LOOP('',(#797));
#167=EDGE_LOOP('',(#798));
#168=EDGE_LOOP('',(#799));
#169=EDGE_LOOP('',(#800));
#170=EDGE_LOOP('',(#801));
#171=EDGE_LOOP('',(#802));
#172=EDGE_LOOP('',(#803,#804,#805,#806,#807,#808,#809,#810));
#173=EDGE_LOOP('',(#811,#812,#813,#814));
#174=EDGE_LOOP('',(#815));
#175=EDGE_LOOP('',(#816,#817,#818,#819));
#176=EDGE_LOOP('',(#820));
#177=EDGE_LOOP('',(#821,#822,#823,#824));
#178=EDGE_LOOP('',(#825));
#179=EDGE_LOOP('',(#826,#827,#828,#829));
#180=EDGE_LOOP('',(#830));
#181=EDGE_LOOP('',(#831,#832,#833,#834));
#182=EDGE_LOOP('',(#835));
#183=EDGE_LOOP('',(#836,#837,#838,#839));
#184=EDGE_LOOP('',(#840));
#185=EDGE_LOOP('',(#841,#842,#843,#844));
#186=EDGE_LOOP('',(#845));
#187=EDGE_LOOP('',(#846,#847,#848,#849));
#188=EDGE_LOOP('',(#850));
#189=EDGE_LOOP('',(#851,#852,#853,#854));
#190=EDGE_LOOP('',(#855,#856,#857,#858));
#191=EDGE_LOOP('',(#859,#860,#861,#862));
#192=EDGE_LOOP('',(#863,#864,#865,#866));
#193=LINE('',#1367,#273);
#194=LINE('',#1371,#274);
#195=LINE('',#1375,#275);
#196=LINE('',#1378,#276);
#197=LINE('',#1381,#277);
#198=LINE('',#1383,#278);
#199=LINE('',#1385,#279);
#200=LINE('',#1387,#280);
#201=LINE('',#1389,#281);
#202=LINE('',#1391,#282);
#203=LINE('',#1393,#283);
#204=LINE('',#1394,#284);
#205=LINE('',#1412,#285);
#206=LINE('',#1420,#286);
#207=LINE('',#1428,#287);
#208=LINE('',#1434,#288);
#209=LINE('',#1437,#289);
#210=LINE('',#1439,#290);
#211=LINE('',#1440,#291);
#212=LINE('',#1443,#292);
#213=LINE('',#1447,#293);
#214=LINE('',#1448,#294);
#215=LINE('',#1451,#295);
#216=LINE('',#1455,#296);
#217=LINE('',#1458,#297);
#218=LINE('',#1461,#298);
#219=LINE('',#1462,#299);
#220=LINE('',#1465,#300);
#221=LINE('',#1469,#301);
#222=LINE('',#1476,#302);
#223=LINE('',#1477,#303);
#224=LINE('',#1478,#304);
#225=LINE('',#1482,#305);
#226=LINE('',#1485,#306);
#227=LINE('',#1486,#307);
#228=LINE('',#1492,#308);
#229=LINE('',#1496,#309);
#230=LINE('',#1500,#310);
#231=LINE('',#1504,#311);
#232=LINE('',#1508,#312);
#233=LINE('',#1510,#313);
#234=LINE('',#1512,#314);
#235=LINE('',#1513,#315);
#236=LINE('',#1516,#316);
#237=LINE('',#1518,#317);
#238=LINE('',#1519,#318);
#239=LINE('',#1521,#319);
#240=LINE('',#1523,#320);
#241=LINE('',#1524,#321);
#242=LINE('',#1527,#322);
#243=LINE('',#1528,#323);
#244=LINE('',#1531,#324);
#245=LINE('',#1533,#325);
#246=LINE('',#1534,#326);
#247=LINE('',#1537,#327);
#248=LINE('',#1539,#328);
#249=LINE('',#1540,#329);
#250=LINE('',#1543,#330);
#251=LINE('',#1545,#331);
#252=LINE('',#1546,#332);
#253=LINE('',#1548,#333);
#254=LINE('',#1549,#334);
#255=LINE('',#1551,#335);
#256=LINE('',#1554,#336);
#257=LINE('',#1573,#337);
#258=LINE('',#1575,#338);
#259=LINE('',#1576,#339);
#260=LINE('',#1579,#340);
#261=LINE('',#1584,#341);
#262=LINE('',#1589,#342);
#263=LINE('',#1594,#343);
#264=LINE('',#1599,#344);
#265=LINE('',#1604,#345);
#266=LINE('',#1609,#346);
#267=LINE('',#1614,#347);
#268=LINE('',#1619,#348);
#269=LINE('',#1620,#349);
#270=LINE('',#1623,#350);
#271=LINE('',#1624,#351);
#272=LINE('',#1626,#352);
#273=VECTOR('',#1077,10.);
#274=VECTOR('',#1080,10.);
#275=VECTOR('',#1083,10.);
#276=VECTOR('',#1086,10.);
#277=VECTOR('',#1087,10.);
#278=VECTOR('',#1088,10.);
#279=VECTOR('',#1089,10.);
#280=VECTOR('',#1090,10.);
#281=VECTOR('',#1091,10.);
#282=VECTOR('',#1092,10.);
#283=VECTOR('',#1093,10.);
#284=VECTOR('',#1094,10.);
#285=VECTOR('',#1115,10.);
#286=VECTOR('',#1126,10.);
#287=VECTOR('',#1137,10.);
#288=VECTOR('',#1146,10.);
#289=VECTOR('',#1149,10.);
#290=VECTOR('',#1150,10.);
#291=VECTOR('',#1151,10.);
#292=VECTOR('',#1154,10.);
#293=VECTOR('',#1159,10.);
#294=VECTOR('',#1160,10.);
#295=VECTOR('',#1163,10.);
#296=VECTOR('',#1168,10.);
#297=VECTOR('',#1171,10.);
#298=VECTOR('',#1174,10.);
#299=VECTOR('',#1175,10.);
#300=VECTOR('',#1176,10.);
#301=VECTOR('',#1179,10.);
#302=VECTOR('',#1188,10.);
#303=VECTOR('',#1189,10.);
#304=VECTOR('',#1190,10.);
#305=VECTOR('',#1195,10.);
#306=VECTOR('',#1198,10.);
#307=VECTOR('',#1199,10.);
#308=VECTOR('',#1208,2.34999999999999);
#309=VECTOR('',#1213,2.34999999999999);
#310=VECTOR('',#1218,2.35000000000003);
#311=VECTOR('',#1223,2.34999999999999);
#312=VECTOR('',#1226,10.);
#313=VECTOR('',#1227,10.);
#314=VECTOR('',#1228,10.);
#315=VECTOR('',#1229,10.);
#316=VECTOR('',#1232,10.);
#317=VECTOR('',#1233,10.);
#318=VECTOR('',#1234,10.);
#319=VECTOR('',#1237,10.);
#320=VECTOR('',#1238,10.);
#321=VECTOR('',#1239,10.);
#322=VECTOR('',#1242,10.);
#323=VECTOR('',#1243,10.);
#324=VECTOR('',#1246,10.);
#325=VECTOR('',#1247,10.);
#326=VECTOR('',#1248,10.);
#327=VECTOR('',#1251,10.);
#328=VECTOR('',#1252,10.);
#329=VECTOR('',#1253,10.);
#330=VECTOR('',#1256,10.);
#331=VECTOR('',#1257,10.);
#332=VECTOR('',#1258,10.);
#333=VECTOR('',#1261,10.);
#334=VECTOR('',#1262,10.);
#335=VECTOR('',#1265,10.);
#336=VECTOR('',#1270,10.);
#337=VECTOR('',#1289,10.);
#338=VECTOR('',#1290,10.);
#339=VECTOR('',#1291,10.);
#340=VECTOR('',#1294,5.);
#341=VECTOR('',#1301,2.5);
#342=VECTOR('',#1308,5.);
#343=VECTOR('',#1315,2.5);
#344=VECTOR('',#1322,2.5);
#345=VECTOR('',#1329,2.5);
#346=VECTOR('',#1336,2.5);
#347=VECTOR('',#1343,2.5);
#348=VECTOR('',#1350,10.);
#349=VECTOR('',#1351,10.);
#350=VECTOR('',#1354,10.);
#351=VECTOR('',#1355,10.);
#352=VECTOR('',#1358,10.);
#353=CIRCLE('',#968,3.);
#354=CIRCLE('',#969,3.);
#355=CIRCLE('',#970,3.);
#356=CIRCLE('',#971,3.);
#357=CIRCLE('',#972,2.34999999999999);
#358=CIRCLE('',#973,2.35000000000003);
#359=CIRCLE('',#974,2.34999999999999);
#360=CIRCLE('',#975,2.34999999999999);
#361=CIRCLE('',#977,0.999999999999996);
#362=CIRCLE('',#978,1.);
#363=CIRCLE('',#979,4.);
#364=CIRCLE('',#981,1.);
#365=CIRCLE('',#983,1.);
#366=CIRCLE('',#984,4.);
#367=CIRCLE('',#986,1.);
#368=CIRCLE('',#988,1.);
#369=CIRCLE('',#989,4.);
#370=CIRCLE('',#991,1.);
#371=CIRCLE('',#993,1.);
#372=CIRCLE('',#994,4.);
#373=CIRCLE('',#998,4.);
#374=CIRCLE('',#1001,4.);
#375=CIRCLE('',#1003,4.);
#376=CIRCLE('',#1005,3.50000000000001);
#377=CIRCLE('',#1006,3.50000000000001);
#378=CIRCLE('',#1008,4.);
#379=CIRCLE('',#1011,3.50000000000001);
#380=CIRCLE('',#1014,3.50000000000001);
#381=CIRCLE('',#1016,2.34999999999999);
#382=CIRCLE('',#1018,2.34999999999999);
#383=CIRCLE('',#1020,2.35000000000003);
#384=CIRCLE('',#1022,2.34999999999999);
#385=CIRCLE('',#1034,5.);
#386=CIRCLE('',#1035,2.5);
#387=CIRCLE('',#1036,5.);
#388=CIRCLE('',#1037,2.5);
#389=CIRCLE('',#1038,2.5);
#390=CIRCLE('',#1039,2.5);
#391=CIRCLE('',#1040,2.5);
#392=CIRCLE('',#1041,2.5);
#393=CIRCLE('',#1044,5.);
#394=CIRCLE('',#1047,2.5);
#395=CIRCLE('',#1050,5.);
#396=CIRCLE('',#1053,2.5);
#397=CIRCLE('',#1056,2.5);
#398=CIRCLE('',#1059,2.5);
#399=CIRCLE('',#1062,2.5);
#400=CIRCLE('',#1065,2.5);
#401=VERTEX_POINT('',#1363);
#402=VERTEX_POINT('',#1364);
#403=VERTEX_POINT('',#1366);
#404=VERTEX_POINT('',#1368);
#405=VERTEX_POINT('',#1370);
#406=VERTEX_POINT('',#1372);
#407=VERTEX_POINT('',#1374);
#408=VERTEX_POINT('',#1376);
#409=VERTEX_POINT('',#1379);
#410=VERTEX_POINT('',#1380);
#411=VERTEX_POINT('',#1382);
#412=VERTEX_POINT('',#1384);
#413=VERTEX_POINT('',#1386);
#414=VERTEX_POINT('',#1388);
#415=VERTEX_POINT('',#1390);
#416=VERTEX_POINT('',#1392);
#417=VERTEX_POINT('',#1395);
#418=VERTEX_POINT('',#1397);
#419=VERTEX_POINT('',#1399);
#420=VERTEX_POINT('',#1401);
#421=VERTEX_POINT('',#1404);
#422=VERTEX_POINT('',#1406);
#423=VERTEX_POINT('',#1410);
#424=VERTEX_POINT('',#1414);
#425=VERTEX_POINT('',#1418);
#426=VERTEX_POINT('',#1422);
#427=VERTEX_POINT('',#1426);
#428=VERTEX_POINT('',#1430);
#429=VERTEX_POINT('',#1436);
#430=VERTEX_POINT('',#1438);
#431=VERTEX_POINT('',#1442);
#432=VERTEX_POINT('',#1446);
#433=VERTEX_POINT('',#1450);
#434=VERTEX_POINT('',#1454);
#435=VERTEX_POINT('',#1456);
#436=VERTEX_POINT('',#1460);
#437=VERTEX_POINT('',#1463);
#438=VERTEX_POINT('',#1464);
#439=VERTEX_POINT('',#1466);
#440=VERTEX_POINT('',#1468);
#441=VERTEX_POINT('',#1474);
#442=VERTEX_POINT('',#1475);
#443=VERTEX_POINT('',#1480);
#444=VERTEX_POINT('',#1484);
#445=VERTEX_POINT('',#1490);
#446=VERTEX_POINT('',#1494);
#447=VERTEX_POINT('',#1498);
#448=VERTEX_POINT('',#1502);
#449=VERTEX_POINT('',#1506);
#450=VERTEX_POINT('',#1507);
#451=VERTEX_POINT('',#1509);
#452=VERTEX_POINT('',#1511);
#453=VERTEX_POINT('',#1515);
#454=VERTEX_POINT('',#1517);
#455=VERTEX_POINT('',#1522);
#456=VERTEX_POINT('',#1526);
#457=VERTEX_POINT('',#1530);
#458=VERTEX_POINT('',#1532);
#459=VERTEX_POINT('',#1536);
#460=VERTEX_POINT('',#1538);
#461=VERTEX_POINT('',#1542);
#462=VERTEX_POINT('',#1544);
#463=VERTEX_POINT('',#1555);
#464=VERTEX_POINT('',#1557);
#465=VERTEX_POINT('',#1559);
#466=VERTEX_POINT('',#1561);
#467=VERTEX_POINT('',#1563);
#468=VERTEX_POINT('',#1565);
#469=VERTEX_POINT('',#1567);
#470=VERTEX_POINT('',#1569);
#471=VERTEX_POINT('',#1572);
#472=VERTEX_POINT('',#1574);
#473=VERTEX_POINT('',#1578);
#474=VERTEX_POINT('',#1583);
#475=VERTEX_POINT('',#1588);
#476=VERTEX_POINT('',#1593);
#477=VERTEX_POINT('',#1598);
#478=VERTEX_POINT('',#1603);
#479=VERTEX_POINT('',#1608);
#480=VERTEX_POINT('',#1613);
#481=VERTEX_POINT('',#1618);
#482=VERTEX_POINT('',#1622);
#483=EDGE_CURVE('',#401,#402,#353,.T.);
#484=EDGE_CURVE('',#403,#401,#193,.T.);
#485=EDGE_CURVE('',#404,#403,#354,.T.);
#486=EDGE_CURVE('',#405,#404,#194,.T.);
#487=EDGE_CURVE('',#406,#405,#355,.T.);
#488=EDGE_CURVE('',#407,#406,#195,.T.);
#489=EDGE_CURVE('',#408,#407,#356,.T.);
#490=EDGE_CURVE('',#402,#408,#196,.T.);
#491=EDGE_CURVE('',#409,#410,#197,.T.);
#492=EDGE_CURVE('',#411,#409,#198,.T.);
#493=EDGE_CURVE('',#412,#411,#199,.T.);
#494=EDGE_CURVE('',#413,#412,#200,.T.);
#495=EDGE_CURVE('',#414,#413,#201,.T.);
#496=EDGE_CURVE('',#415,#414,#202,.T.);
#497=EDGE_CURVE('',#416,#415,#203,.T.);
#498=EDGE_CURVE('',#410,#416,#204,.T.);
#499=EDGE_CURVE('',#417,#417,#357,.T.);
#500=EDGE_CURVE('',#418,#418,#358,.T.);
#501=EDGE_CURVE('',#419,#419,#359,.T.);
#502=EDGE_CURVE('',#420,#420,#360,.T.);
#503=EDGE_CURVE('',#421,#401,#361,.T.);
#504=EDGE_CURVE('',#402,#422,#362,.T.);
#505=EDGE_CURVE('',#422,#421,#363,.T.);
#506=EDGE_CURVE('',#408,#423,#364,.T.);
#507=EDGE_CURVE('',#423,#422,#205,.T.);
#508=EDGE_CURVE('',#407,#424,#365,.T.);
#509=EDGE_CURVE('',#424,#423,#366,.T.);
#510=EDGE_CURVE('',#406,#425,#367,.T.);
#511=EDGE_CURVE('',#425,#424,#206,.T.);
#512=EDGE_CURVE('',#405,#426,#368,.T.);
#513=EDGE_CURVE('',#426,#425,#369,.T.);
#514=EDGE_CURVE('',#404,#427,#370,.T.);
#515=EDGE_CURVE('',#427,#426,#207,.T.);
#516=EDGE_CURVE('',#403,#428,#371,.T.);
#517=EDGE_CURVE('',#428,#427,#372,.T.);
#518=EDGE_CURVE('',#421,#428,#208,.T.);
#519=EDGE_CURVE('',#429,#427,#209,.T.);
#520=EDGE_CURVE('',#430,#429,#210,.T.);
#521=EDGE_CURVE('',#426,#430,#211,.T.);
#522=EDGE_CURVE('',#428,#431,#212,.T.);
#523=EDGE_CURVE('',#431,#429,#373,.T.);
#524=EDGE_CURVE('',#432,#421,#213,.T.);
#525=EDGE_CURVE('',#431,#432,#214,.T.);
#526=EDGE_CURVE('',#422,#433,#215,.T.);
#527=EDGE_CURVE('',#433,#432,#374,.T.);
#528=EDGE_CURVE('',#424,#434,#216,.T.);
#529=EDGE_CURVE('',#434,#435,#375,.T.);
#530=EDGE_CURVE('',#435,#423,#217,.T.);
#531=EDGE_CURVE('',#436,#425,#218,.T.);
#532=EDGE_CURVE('',#434,#436,#219,.T.);
#533=EDGE_CURVE('',#437,#438,#220,.T.);
#534=EDGE_CURVE('',#438,#439,#376,.T.);
#535=EDGE_CURVE('',#439,#440,#221,.T.);
#536=EDGE_CURVE('',#440,#437,#377,.T.);
#537=EDGE_CURVE('',#430,#436,#378,.T.);
#538=EDGE_CURVE('',#441,#442,#222,.T.);
#539=EDGE_CURVE('',#440,#441,#223,.T.);
#540=EDGE_CURVE('',#439,#442,#224,.T.);
#541=EDGE_CURVE('',#442,#443,#379,.T.);
#542=EDGE_CURVE('',#438,#443,#225,.T.);
#543=EDGE_CURVE('',#443,#444,#226,.T.);
#544=EDGE_CURVE('',#437,#444,#227,.T.);
#545=EDGE_CURVE('',#444,#441,#380,.T.);
#546=EDGE_CURVE('',#445,#445,#381,.T.);
#547=EDGE_CURVE('',#445,#420,#228,.T.);
#548=EDGE_CURVE('',#446,#446,#382,.T.);
#549=EDGE_CURVE('',#446,#419,#229,.T.);
#550=EDGE_CURVE('',#447,#447,#383,.T.);
#551=EDGE_CURVE('',#447,#418,#230,.T.);
#552=EDGE_CURVE('',#448,#448,#384,.T.);
#553=EDGE_CURVE('',#448,#417,#231,.T.);
#554=EDGE_CURVE('',#449,#450,#232,.T.);
#555=EDGE_CURVE('',#449,#451,#233,.T.);
#556=EDGE_CURVE('',#452,#451,#234,.T.);
#557=EDGE_CURVE('',#450,#452,#235,.T.);
#558=EDGE_CURVE('',#450,#453,#236,.T.);
#559=EDGE_CURVE('',#454,#452,#237,.T.);
#560=EDGE_CURVE('',#453,#454,#238,.T.);
#561=EDGE_CURVE('',#453,#412,#239,.T.);
#562=EDGE_CURVE('',#455,#454,#240,.T.);
#563=EDGE_CURVE('',#413,#455,#241,.T.);
#564=EDGE_CURVE('',#456,#455,#242,.T.);
#565=EDGE_CURVE('',#414,#456,#243,.T.);
#566=EDGE_CURVE('',#457,#456,#244,.T.);
#567=EDGE_CURVE('',#458,#457,#245,.T.);
#568=EDGE_CURVE('',#415,#458,#246,.T.);
#569=EDGE_CURVE('',#458,#459,#247,.T.);
#570=EDGE_CURVE('',#460,#457,#248,.T.);
#571=EDGE_CURVE('',#459,#460,#249,.T.);
#572=EDGE_CURVE('',#459,#461,#250,.T.);
#573=EDGE_CURVE('',#462,#460,#251,.T.);
#574=EDGE_CURVE('',#461,#462,#252,.T.);
#575=EDGE_CURVE('',#461,#449,#253,.T.);
#576=EDGE_CURVE('',#451,#462,#254,.T.);
#577=EDGE_CURVE('',#433,#435,#255,.T.);
#578=EDGE_CURVE('',#453,#458,#256,.T.);
#579=EDGE_CURVE('',#463,#463,#385,.T.);
#580=EDGE_CURVE('',#464,#464,#386,.T.);
#581=EDGE_CURVE('',#465,#465,#387,.T.);
#582=EDGE_CURVE('',#466,#466,#388,.T.);
#583=EDGE_CURVE('',#467,#467,#389,.T.);
#584=EDGE_CURVE('',#468,#468,#390,.T.);
#585=EDGE_CURVE('',#469,#469,#391,.T.);
#586=EDGE_CURVE('',#470,#470,#392,.T.);
#587=EDGE_CURVE('',#471,#411,#257,.T.);
#588=EDGE_CURVE('',#472,#471,#258,.T.);
#589=EDGE_CURVE('',#472,#416,#259,.T.);
#590=EDGE_CURVE('',#463,#473,#260,.T.);
#591=EDGE_CURVE('',#473,#473,#393,.T.);
#592=EDGE_CURVE('',#464,#474,#261,.T.);
#593=EDGE_CURVE('',#474,#474,#394,.T.);
#594=EDGE_CURVE('',#465,#475,#262,.T.);
#595=EDGE_CURVE('',#475,#475,#395,.T.);
#596=EDGE_CURVE('',#466,#476,#263,.T.);
#597=EDGE_CURVE('',#476,#476,#396,.T.);
#598=EDGE_CURVE('',#467,#477,#264,.T.);
#599=EDGE_CURVE('',#477,#477,#397,.T.);
#600=EDGE_CURVE('',#468,#478,#265,.T.);
#601=EDGE_CURVE('',#478,#478,#398,.T.);
#602=EDGE_CURVE('',#469,#479,#266,.T.);
#603=EDGE_CURVE('',#479,#479,#399,.T.);
#604=EDGE_CURVE('',#470,#480,#267,.T.);
#605=EDGE_CURVE('',#480,#480,#400,.T.);
#606=EDGE_CURVE('',#481,#409,#268,.T.);
#607=EDGE_CURVE('',#471,#481,#269,.T.);
#608=EDGE_CURVE('',#482,#410,#270,.T.);
#609=EDGE_CURVE('',#481,#482,#271,.T.);
#610=EDGE_CURVE('',#482,#472,#272,.T.);
#611=ORIENTED_EDGE('',*,*,#483,.F.);
#612=ORIENTED_EDGE('',*,*,#484,.F.);
#613=ORIENTED_EDGE('',*,*,#485,.F.);
#614=ORIENTED_EDGE('',*,*,#486,.F.);
#615=ORIENTED_EDGE('',*,*,#487,.F.);
#616=ORIENTED_EDGE('',*,*,#488,.F.);
#617=ORIENTED_EDGE('',*,*,#489,.F.);
#618=ORIENTED_EDGE('',*,*,#490,.F.);
#619=ORIENTED_EDGE('',*,*,#491,.F.);
#620=ORIENTED_EDGE('',*,*,#492,.F.);
#621=ORIENTED_EDGE('',*,*,#493,.F.);
#622=ORIENTED_EDGE('',*,*,#494,.F.);
#623=ORIENTED_EDGE('',*,*,#495,.F.);
#624=ORIENTED_EDGE('',*,*,#496,.F.);
#625=ORIENTED_EDGE('',*,*,#497,.F.);
#626=ORIENTED_EDGE('',*,*,#498,.F.);
#627=ORIENTED_EDGE('',*,*,#499,.F.);
#628=ORIENTED_EDGE('',*,*,#500,.F.);
#629=ORIENTED_EDGE('',*,*,#501,.F.);
#630=ORIENTED_EDGE('',*,*,#502,.F.);
#631=ORIENTED_EDGE('',*,*,#503,.T.);
#632=ORIENTED_EDGE('',*,*,#483,.T.);
#633=ORIENTED_EDGE('',*,*,#504,.T.);
#634=ORIENTED_EDGE('',*,*,#505,.T.);
#635=ORIENTED_EDGE('',*,*,#506,.T.);
#636=ORIENTED_EDGE('',*,*,#507,.T.);
#637=ORIENTED_EDGE('',*,*,#504,.F.);
#638=ORIENTED_EDGE('',*,*,#490,.T.);
#639=ORIENTED_EDGE('',*,*,#508,.T.);
#640=ORIENTED_EDGE('',*,*,#509,.T.);
#641=ORIENTED_EDGE('',*,*,#506,.F.);
#642=ORIENTED_EDGE('',*,*,#489,.T.);
#643=ORIENTED_EDGE('',*,*,#510,.T.);
#644=ORIENTED_EDGE('',*,*,#511,.T.);
#645=ORIENTED_EDGE('',*,*,#508,.F.);
#646=ORIENTED_EDGE('',*,*,#488,.T.);
#647=ORIENTED_EDGE('',*,*,#512,.T.);
#648=ORIENTED_EDGE('',*,*,#513,.T.);
#649=ORIENTED_EDGE('',*,*,#510,.F.);
#650=ORIENTED_EDGE('',*,*,#487,.T.);
#651=ORIENTED_EDGE('',*,*,#514,.T.);
#652=ORIENTED_EDGE('',*,*,#515,.T.);
#653=ORIENTED_EDGE('',*,*,#512,.F.);
#654=ORIENTED_EDGE('',*,*,#486,.T.);
#655=ORIENTED_EDGE('',*,*,#516,.T.);
#656=ORIENTED_EDGE('',*,*,#517,.T.);
#657=ORIENTED_EDGE('',*,*,#514,.F.);
#658=ORIENTED_EDGE('',*,*,#485,.T.);
#659=ORIENTED_EDGE('',*,*,#516,.F.);
#660=ORIENTED_EDGE('',*,*,#484,.T.);
#661=ORIENTED_EDGE('',*,*,#503,.F.);
#662=ORIENTED_EDGE('',*,*,#518,.T.);
#663=ORIENTED_EDGE('',*,*,#515,.F.);
#664=ORIENTED_EDGE('',*,*,#519,.F.);
#665=ORIENTED_EDGE('',*,*,#520,.F.);
#666=ORIENTED_EDGE('',*,*,#521,.F.);
#667=ORIENTED_EDGE('',*,*,#517,.F.);
#668=ORIENTED_EDGE('',*,*,#522,.T.);
#669=ORIENTED_EDGE('',*,*,#523,.T.);
#670=ORIENTED_EDGE('',*,*,#519,.T.);
#671=ORIENTED_EDGE('',*,*,#518,.F.);
#672=ORIENTED_EDGE('',*,*,#524,.F.);
#673=ORIENTED_EDGE('',*,*,#525,.F.);
#674=ORIENTED_EDGE('',*,*,#522,.F.);
#675=ORIENTED_EDGE('',*,*,#505,.F.);
#676=ORIENTED_EDGE('',*,*,#526,.T.);
#677=ORIENTED_EDGE('',*,*,#527,.T.);
#678=ORIENTED_EDGE('',*,*,#524,.T.);
#679=ORIENTED_EDGE('',*,*,#509,.F.);
#680=ORIENTED_EDGE('',*,*,#528,.T.);
#681=ORIENTED_EDGE('',*,*,#529,.T.);
#682=ORIENTED_EDGE('',*,*,#530,.T.);
#683=ORIENTED_EDGE('',*,*,#511,.F.);
#684=ORIENTED_EDGE('',*,*,#531,.F.);
#685=ORIENTED_EDGE('',*,*,#532,.F.);
#686=ORIENTED_EDGE('',*,*,#528,.F.);
#687=ORIENTED_EDGE('',*,*,#533,.T.);
#688=ORIENTED_EDGE('',*,*,#534,.T.);
#689=ORIENTED_EDGE('',*,*,#535,.T.);
#690=ORIENTED_EDGE('',*,*,#536,.T.);
#691=ORIENTED_EDGE('',*,*,#513,.F.);
#692=ORIENTED_EDGE('',*,*,#521,.T.);
#693=ORIENTED_EDGE('',*,*,#537,.T.);
#694=ORIENTED_EDGE('',*,*,#531,.T.);
#695=ORIENTED_EDGE('',*,*,#538,.F.);
#696=ORIENTED_EDGE('',*,*,#539,.F.);
#697=ORIENTED_EDGE('',*,*,#535,.F.);
#698=ORIENTED_EDGE('',*,*,#540,.T.);
#699=ORIENTED_EDGE('',*,*,#541,.F.);
#700=ORIENTED_EDGE('',*,*,#540,.F.);
#701=ORIENTED_EDGE('',*,*,#534,.F.);
#702=ORIENTED_EDGE('',*,*,#542,.T.);
#703=ORIENTED_EDGE('',*,*,#543,.F.);
#704=ORIENTED_EDGE('',*,*,#542,.F.);
#705=ORIENTED_EDGE('',*,*,#533,.F.);
#706=ORIENTED_EDGE('',*,*,#544,.T.);
#707=ORIENTED_EDGE('',*,*,#545,.F.);
#708=ORIENTED_EDGE('',*,*,#544,.F.);
#709=ORIENTED_EDGE('',*,*,#536,.F.);
#710=ORIENTED_EDGE('',*,*,#539,.T.);
#711=ORIENTED_EDGE('',*,*,#546,.F.);
#712=ORIENTED_EDGE('',*,*,#547,.T.);
#713=ORIENTED_EDGE('',*,*,#502,.T.);
#714=ORIENTED_EDGE('',*,*,#547,.F.);
#715=ORIENTED_EDGE('',*,*,#548,.F.);
#716=ORIENTED_EDGE('',*,*,#549,.T.);
#717=ORIENTED_EDGE('',*,*,#501,.T.);
#718=ORIENTED_EDGE('',*,*,#549,.F.);
#719=ORIENTED_EDGE('',*,*,#550,.F.);
#720=ORIENTED_EDGE('',*,*,#551,.T.);
#721=ORIENTED_EDGE('',*,*,#500,.T.);
#722=ORIENTED_EDGE('',*,*,#551,.F.);
#723=ORIENTED_EDGE('',*,*,#552,.F.);
#724=ORIENTED_EDGE('',*,*,#553,.T.);
#725=ORIENTED_EDGE('',*,*,#499,.T.);
#726=ORIENTED_EDGE('',*,*,#553,.F.);
#727=ORIENTED_EDGE('',*,*,#554,.F.);
#728=ORIENTED_EDGE('',*,*,#555,.T.);
#729=ORIENTED_EDGE('',*,*,#556,.F.);
#730=ORIENTED_EDGE('',*,*,#557,.F.);
#731=ORIENTED_EDGE('',*,*,#558,.F.);
#732=ORIENTED_EDGE('',*,*,#557,.T.);
#733=ORIENTED_EDGE('',*,*,#559,.F.);
#734=ORIENTED_EDGE('',*,*,#560,.F.);
#735=ORIENTED_EDGE('',*,*,#494,.T.);
#736=ORIENTED_EDGE('',*,*,#561,.F.);
#737=ORIENTED_EDGE('',*,*,#560,.T.);
#738=ORIENTED_EDGE('',*,*,#562,.F.);
#739=ORIENTED_EDGE('',*,*,#563,.F.);
#740=ORIENTED_EDGE('',*,*,#495,.T.);
#741=ORIENTED_EDGE('',*,*,#563,.T.);
#742=ORIENTED_EDGE('',*,*,#564,.F.);
#743=ORIENTED_EDGE('',*,*,#565,.F.);
#744=ORIENTED_EDGE('',*,*,#543,.T.);
#745=ORIENTED_EDGE('',*,*,#545,.T.);
#746=ORIENTED_EDGE('',*,*,#538,.T.);
#747=ORIENTED_EDGE('',*,*,#541,.T.);
#748=ORIENTED_EDGE('',*,*,#496,.T.);
#749=ORIENTED_EDGE('',*,*,#565,.T.);
#750=ORIENTED_EDGE('',*,*,#566,.F.);
#751=ORIENTED_EDGE('',*,*,#567,.F.);
#752=ORIENTED_EDGE('',*,*,#568,.F.);
#753=ORIENTED_EDGE('',*,*,#569,.F.);
#754=ORIENTED_EDGE('',*,*,#567,.T.);
#755=ORIENTED_EDGE('',*,*,#570,.F.);
#756=ORIENTED_EDGE('',*,*,#571,.F.);
#757=ORIENTED_EDGE('',*,*,#572,.F.);
#758=ORIENTED_EDGE('',*,*,#571,.T.);
#759=ORIENTED_EDGE('',*,*,#573,.F.);
#760=ORIENTED_EDGE('',*,*,#574,.F.);
#761=ORIENTED_EDGE('',*,*,#575,.F.);
#762=ORIENTED_EDGE('',*,*,#574,.T.);
#763=ORIENTED_EDGE('',*,*,#576,.F.);
#764=ORIENTED_EDGE('',*,*,#555,.F.);
#765=ORIENTED_EDGE('',*,*,#507,.F.);
#766=ORIENTED_EDGE('',*,*,#530,.F.);
#767=ORIENTED_EDGE('',*,*,#577,.F.);
#768=ORIENTED_EDGE('',*,*,#526,.F.);
#769=ORIENTED_EDGE('',*,*,#529,.F.);
#770=ORIENTED_EDGE('',*,*,#532,.T.);
#771=ORIENTED_EDGE('',*,*,#537,.F.);
#772=ORIENTED_EDGE('',*,*,#520,.T.);
#773=ORIENTED_EDGE('',*,*,#523,.F.);
#774=ORIENTED_EDGE('',*,*,#525,.T.);
#775=ORIENTED_EDGE('',*,*,#527,.F.);
#776=ORIENTED_EDGE('',*,*,#577,.T.);
#777=ORIENTED_EDGE('',*,*,#576,.T.);
#778=ORIENTED_EDGE('',*,*,#573,.T.);
#779=ORIENTED_EDGE('',*,*,#570,.T.);
#780=ORIENTED_EDGE('',*,*,#566,.T.);
#781=ORIENTED_EDGE('',*,*,#564,.T.);
#782=ORIENTED_EDGE('',*,*,#562,.T.);
#783=ORIENTED_EDGE('',*,*,#559,.T.);
#784=ORIENTED_EDGE('',*,*,#556,.T.);
#785=ORIENTED_EDGE('',*,*,#552,.T.);
#786=ORIENTED_EDGE('',*,*,#550,.T.);
#787=ORIENTED_EDGE('',*,*,#548,.T.);
#788=ORIENTED_EDGE('',*,*,#546,.T.);
#789=ORIENTED_EDGE('',*,*,#554,.T.);
#790=ORIENTED_EDGE('',*,*,#558,.T.);
#791=ORIENTED_EDGE('',*,*,#578,.T.);
#792=ORIENTED_EDGE('',*,*,#569,.T.);
#793=ORIENTED_EDGE('',*,*,#572,.T.);
#794=ORIENTED_EDGE('',*,*,#575,.T.);
#795=ORIENTED_EDGE('',*,*,#579,.T.);
#796=ORIENTED_EDGE('',*,*,#580,.T.);
#797=ORIENTED_EDGE('',*,*,#581,.T.);
#798=ORIENTED_EDGE('',*,*,#582,.T.);
#799=ORIENTED_EDGE('',*,*,#583,.T.);
#800=ORIENTED_EDGE('',*,*,#584,.T.);
#801=ORIENTED_EDGE('',*,*,#585,.T.);
#802=ORIENTED_EDGE('',*,*,#586,.T.);
#803=ORIENTED_EDGE('',*,*,#497,.T.);
#804=ORIENTED_EDGE('',*,*,#568,.T.);
#805=ORIENTED_EDGE('',*,*,#578,.F.);
#806=ORIENTED_EDGE('',*,*,#561,.T.);
#807=ORIENTED_EDGE('',*,*,#493,.T.);
#808=ORIENTED_EDGE('',*,*,#587,.F.);
#809=ORIENTED_EDGE('',*,*,#588,.F.);
#810=ORIENTED_EDGE('',*,*,#589,.T.);
#811=ORIENTED_EDGE('',*,*,#579,.F.);
#812=ORIENTED_EDGE('',*,*,#590,.T.);
#813=ORIENTED_EDGE('',*,*,#591,.F.);
#814=ORIENTED_EDGE('',*,*,#590,.F.);
#815=ORIENTED_EDGE('',*,*,#591,.T.);
#816=ORIENTED_EDGE('',*,*,#580,.F.);
#817=ORIENTED_EDGE('',*,*,#592,.T.);
#818=ORIENTED_EDGE('',*,*,#593,.F.);
#819=ORIENTED_EDGE('',*,*,#592,.F.);
#820=ORIENTED_EDGE('',*,*,#593,.T.);
#821=ORIENTED_EDGE('',*,*,#581,.F.);
#822=ORIENTED_EDGE('',*,*,#594,.T.);
#823=ORIENTED_EDGE('',*,*,#595,.F.);
#824=ORIENTED_EDGE('',*,*,#594,.F.);
#825=ORIENTED_EDGE('',*,*,#595,.T.);
#826=ORIENTED_EDGE('',*,*,#582,.F.);
#827=ORIENTED_EDGE('',*,*,#596,.T.);
#828=ORIENTED_EDGE('',*,*,#597,.F.);
#829=ORIENTED_EDGE('',*,*,#596,.F.);
#830=ORIENTED_EDGE('',*,*,#597,.T.);
#831=ORIENTED_EDGE('',*,*,#583,.F.);
#832=ORIENTED_EDGE('',*,*,#598,.T.);
#833=ORIENTED_EDGE('',*,*,#599,.F.);
#834=ORIENTED_EDGE('',*,*,#598,.F.);
#835=ORIENTED_EDGE('',*,*,#599,.T.);
#836=ORIENTED_EDGE('',*,*,#584,.F.);
#837=ORIENTED_EDGE('',*,*,#600,.T.);
#838=ORIENTED_EDGE('',*,*,#601,.F.);
#839=ORIENTED_EDGE('',*,*,#600,.F.);
#840=ORIENTED_EDGE('',*,*,#601,.T.);
#841=ORIENTED_EDGE('',*,*,#585,.F.);
#842=ORIENTED_EDGE('',*,*,#602,.T.);
#843=ORIENTED_EDGE('',*,*,#603,.F.);
#844=ORIENTED_EDGE('',*,*,#602,.F.);
#845=ORIENTED_EDGE('',*,*,#603,.T.);
#846=ORIENTED_EDGE('',*,*,#586,.F.);
#847=ORIENTED_EDGE('',*,*,#604,.T.);
#848=ORIENTED_EDGE('',*,*,#605,.F.);
#849=ORIENTED_EDGE('',*,*,#604,.F.);
#850=ORIENTED_EDGE('',*,*,#605,.T.);
#851=ORIENTED_EDGE('',*,*,#492,.T.);
#852=ORIENTED_EDGE('',*,*,#606,.F.);
#853=ORIENTED_EDGE('',*,*,#607,.F.);
#854=ORIENTED_EDGE('',*,*,#587,.T.);
#855=ORIENTED_EDGE('',*,*,#491,.T.);
#856=ORIENTED_EDGE('',*,*,#608,.F.);
#857=ORIENTED_EDGE('',*,*,#609,.F.);
#858=ORIENTED_EDGE('',*,*,#606,.T.);
#859=ORIENTED_EDGE('',*,*,#498,.T.);
#860=ORIENTED_EDGE('',*,*,#589,.F.);
#861=ORIENTED_EDGE('',*,*,#610,.F.);
#862=ORIENTED_EDGE('',*,*,#608,.T.);
#863=ORIENTED_EDGE('',*,*,#588,.T.);
#864=ORIENTED_EDGE('',*,*,#607,.T.);
#865=ORIENTED_EDGE('',*,*,#609,.T.);
#866=ORIENTED_EDGE('',*,*,#610,.T.);
#867=PLANE('',#967);
#868=PLANE('',#996);
#869=PLANE('',#999);
#870=PLANE('',#1004);
#871=PLANE('',#1009);
#872=PLANE('',#1012);
#873=PLANE('',#1023);
#874=PLANE('',#1024);
#875=PLANE('',#1025);
#876=PLANE('',#1026);
#877=PLANE('',#1027);
#878=PLANE('',#1028);
#879=PLANE('',#1029);
#880=PLANE('',#1030);
#881=PLANE('',#1031);
#882=PLANE('',#1032);
#883=PLANE('',#1033);
#884=PLANE('',#1042);
#885=PLANE('',#1045);
#886=PLANE('',#1048);
#887=PLANE('',#1051);
#888=PLANE('',#1054);
#889=PLANE('',#1057);
#890=PLANE('',#1060);
#891=PLANE('',#1063);
#892=PLANE('',#1066);
#893=PLANE('',#1067);
#894=PLANE('',#1068);
#895=PLANE('',#1069);
#896=PLANE('',#1070);
#897=ADVANCED_FACE('',(#61,#41,#42,#43,#44,#45),#867,.F.);
#898=ADVANCED_FACE('',(#62),#37,.T.);
#899=ADVANCED_FACE('',(#63),#15,.T.);
#900=ADVANCED_FACE('',(#64),#38,.T.);
#901=ADVANCED_FACE('',(#65),#16,.T.);
#902=ADVANCED_FACE('',(#66),#39,.T.);
#903=ADVANCED_FACE('',(#67),#17,.T.);
#904=ADVANCED_FACE('',(#68),#40,.T.);
#905=ADVANCED_FACE('',(#69),#18,.T.);
#906=ADVANCED_FACE('',(#70),#868,.T.);
#907=ADVANCED_FACE('',(#71),#19,.T.);
#908=ADVANCED_FACE('',(#72),#869,.T.);
#909=ADVANCED_FACE('',(#73),#20,.T.);
#910=ADVANCED_FACE('',(#74),#21,.T.);
#911=ADVANCED_FACE('',(#75,#46),#870,.T.);
#912=ADVANCED_FACE('',(#76),#22,.T.);
#913=ADVANCED_FACE('',(#77),#871,.F.);
#914=ADVANCED_FACE('',(#78),#23,.F.);
#915=ADVANCED_FACE('',(#79),#872,.F.);
#916=ADVANCED_FACE('',(#80),#24,.F.);
#917=ADVANCED_FACE('',(#81),#25,.F.);
#918=ADVANCED_FACE('',(#82),#26,.F.);
#919=ADVANCED_FACE('',(#83),#27,.F.);
#920=ADVANCED_FACE('',(#84),#28,.F.);
#921=ADVANCED_FACE('',(#85),#873,.T.);
#922=ADVANCED_FACE('',(#86),#874,.T.);
#923=ADVANCED_FACE('',(#87),#875,.T.);
#924=ADVANCED_FACE('',(#88,#47),#876,.T.);
#925=ADVANCED_FACE('',(#89),#877,.T.);
#926=ADVANCED_FACE('',(#90),#878,.T.);
#927=ADVANCED_FACE('',(#91),#879,.T.);
#928=ADVANCED_FACE('',(#92),#880,.T.);
#929=ADVANCED_FACE('',(#93),#881,.T.);
#930=ADVANCED_FACE('',(#94,#48,#49,#50,#51,#52),#882,.T.);
#931=ADVANCED_FACE('',(#95,#53,#54,#55,#56,#57,#58,#59,#60),#883,.T.);
#932=ADVANCED_FACE('',(#96),#884,.T.);
#933=ADVANCED_FACE('',(#97),#29,.T.);
#934=ADVANCED_FACE('',(#98),#885,.T.);
#935=ADVANCED_FACE('',(#99),#30,.T.);
#936=ADVANCED_FACE('',(#100),#886,.T.);
#937=ADVANCED_FACE('',(#101),#31,.T.);
#938=ADVANCED_FACE('',(#102),#887,.T.);
#939=ADVANCED_FACE('',(#103),#32,.T.);
#940=ADVANCED_FACE('',(#104),#888,.T.);
#941=ADVANCED_FACE('',(#105),#33,.T.);
#942=ADVANCED_FACE('',(#106),#889,.T.);
#943=ADVANCED_FACE('',(#107),#34,.T.);
#944=ADVANCED_FACE('',(#108),#890,.T.);
#945=ADVANCED_FACE('',(#109),#35,.T.);
#946=ADVANCED_FACE('',(#110),#891,.T.);
#947=ADVANCED_FACE('',(#111),#36,.T.);
#948=ADVANCED_FACE('',(#112),#892,.T.);
#949=ADVANCED_FACE('',(#113),#893,.T.);
#950=ADVANCED_FACE('',(#114),#894,.T.);
#951=ADVANCED_FACE('',(#115),#895,.T.);
#952=ADVANCED_FACE('',(#116),#896,.F.);
#953=CLOSED_SHELL('',(#897,#898,#899,#900,#901,#902,#903,#904,#905,#906,
#907,#908,#909,#910,#911,#912,#913,#914,#915,#916,#917,#918,#919,#920,#921,
#922,#923,#924,#925,#926,#927,#928,#929,#930,#931,#932,#933,#934,#935,#936,
#937,#938,#939,#940,#941,#942,#943,#944,#945,#946,#947,#948,#949,#950,#951,
#952));
#954=DERIVED_UNIT_ELEMENT(#956,1.);
#955=DERIVED_UNIT_ELEMENT(#1633,-3.);
#956=(
MASS_UNIT()
NAMED_UNIT(*)
SI_UNIT(.KILO.,.GRAM.)
);
#957=DERIVED_UNIT((#954,#955));
#958=MEASURE_REPRESENTATION_ITEM('density measure',
POSITIVE_RATIO_MEASURE(7850.),#957);
#959=PROPERTY_DEFINITION_REPRESENTATION(#964,#961);
#960=PROPERTY_DEFINITION_REPRESENTATION(#965,#962);
#961=REPRESENTATION('material name',(#963),#1630);
#962=REPRESENTATION('density',(#958),#1630);
#963=DESCRIPTIVE_REPRESENTATION_ITEM('Steel','Steel');
#964=PROPERTY_DEFINITION('material property','material name',#1640);
#965=PROPERTY_DEFINITION('material property','density of part',#1640);
#966=AXIS2_PLACEMENT_3D('',#1361,#1071,#1072);
#967=AXIS2_PLACEMENT_3D('',#1362,#1073,#1074);
#968=AXIS2_PLACEMENT_3D('',#1365,#1075,#1076);
#969=AXIS2_PLACEMENT_3D('',#1369,#1078,#1079);
#970=AXIS2_PLACEMENT_3D('',#1373,#1081,#1082);
#971=AXIS2_PLACEMENT_3D('',#1377,#1084,#1085);
#972=AXIS2_PLACEMENT_3D('',#1396,#1095,#1096);
#973=AXIS2_PLACEMENT_3D('',#1398,#1097,#1098);
#974=AXIS2_PLACEMENT_3D('',#1400,#1099,#1100);
#975=AXIS2_PLACEMENT_3D('',#1402,#1101,#1102);
#976=AXIS2_PLACEMENT_3D('',#1403,#1103,#1104);
#977=AXIS2_PLACEMENT_3D('',#1405,#1105,#1106);
#978=AXIS2_PLACEMENT_3D('',#1407,#1107,#1108);
#979=AXIS2_PLACEMENT_3D('',#1408,#1109,#1110);
#980=AXIS2_PLACEMENT_3D('',#1409,#1111,#1112);
#981=AXIS2_PLACEMENT_3D('',#1411,#1113,#1114);
#982=AXIS2_PLACEMENT_3D('',#1413,#1116,#1117);
#983=AXIS2_PLACEMENT_3D('',#1415,#1118,#1119);
#984=AXIS2_PLACEMENT_3D('',#1416,#1120,#1121);
#985=AXIS2_PLACEMENT_3D('',#1417,#1122,#1123);
#986=AXIS2_PLACEMENT_3D('',#1419,#1124,#1125);
#987=AXIS2_PLACEMENT_3D('',#1421,#1127,#1128);
#988=AXIS2_PLACEMENT_3D('',#1423,#1129,#1130);
#989=AXIS2_PLACEMENT_3D('',#1424,#1131,#1132);
#990=AXIS2_PLACEMENT_3D('',#1425,#1133,#1134);
#991=AXIS2_PLACEMENT_3D('',#1427,#1135,#1136);
#992=AXIS2_PLACEMENT_3D('',#1429,#1138,#1139);
#993=AXIS2_PLACEMENT_3D('',#1431,#1140,#1141);
#994=AXIS2_PLACEMENT_3D('',#1432,#1142,#1143);
#995=AXIS2_PLACEMENT_3D('',#1433,#1144,#1145);
#996=AXIS2_PLACEMENT_3D('',#1435,#1147,#1148);
#997=AXIS2_PLACEMENT_3D('',#1441,#1152,#1153);
#998=AXIS2_PLACEMENT_3D('',#1444,#1155,#1156);
#999=AXIS2_PLACEMENT_3D('',#1445,#1157,#1158);
#1000=AXIS2_PLACEMENT_3D('',#1449,#1161,#1162);
#1001=AXIS2_PLACEMENT_3D('',#1452,#1164,#1165);
#1002=AXIS2_PLACEMENT_3D('',#1453,#1166,#1167);
#1003=AXIS2_PLACEMENT_3D('',#1457,#1169,#1170);
#1004=AXIS2_PLACEMENT_3D('',#1459,#1172,#1173);
#1005=AXIS2_PLACEMENT_3D('',#1467,#1177,#1178);
#1006=AXIS2_PLACEMENT_3D('',#1470,#1180,#1181);
#1007=AXIS2_PLACEMENT_3D('',#1471,#1182,#1183);
#1008=AXIS2_PLACEMENT_3D('',#1472,#1184,#1185);
#1009=AXIS2_PLACEMENT_3D('',#1473,#1186,#1187);
#1010=AXIS2_PLACEMENT_3D('',#1479,#1191,#1192);
#1011=AXIS2_PLACEMENT_3D('',#1481,#1193,#1194);
#1012=AXIS2_PLACEMENT_3D('',#1483,#1196,#1197);
#1013=AXIS2_PLACEMENT_3D('',#1487,#1200,#1201);
#1014=AXIS2_PLACEMENT_3D('',#1488,#1202,#1203);
#1015=AXIS2_PLACEMENT_3D('',#1489,#1204,#1205);
#1016=AXIS2_PLACEMENT_3D('',#1491,#1206,#1207);
#1017=AXIS2_PLACEMENT_3D('',#1493,#1209,#1210);
#1018=AXIS2_PLACEMENT_3D('',#1495,#1211,#1212);
#1019=AXIS2_PLACEMENT_3D('',#1497,#1214,#1215);
#1020=AXIS2_PLACEMENT_3D('',#1499,#1216,#1217);
#1021=AXIS2_PLACEMENT_3D('',#1501,#1219,#1220);
#1022=AXIS2_PLACEMENT_3D('',#1503,#1221,#1222);
#1023=AXIS2_PLACEMENT_3D('',#1505,#1224,#1225);
#1024=AXIS2_PLACEMENT_3D('',#1514,#1230,#1231);
#1025=AXIS2_PLACEMENT_3D('',#1520,#1235,#1236);
#1026=AXIS2_PLACEMENT_3D('',#1525,#1240,#1241);
#1027=AXIS2_PLACEMENT_3D('',#1529,#1244,#1245);
#1028=AXIS2_PLACEMENT_3D('',#1535,#1249,#1250);
#1029=AXIS2_PLACEMENT_3D('',#1541,#1254,#1255);
#1030=AXIS2_PLACEMENT_3D('',#1547,#1259,#1260);
#1031=AXIS2_PLACEMENT_3D('',#1550,#1263,#1264);
#1032=AXIS2_PLACEMENT_3D('',#1552,#1266,#1267);
#1033=AXIS2_PLACEMENT_3D('',#1553,#1268,#1269);
#1034=AXIS2_PLACEMENT_3D('',#1556,#1271,#1272);
#1035=AXIS2_PLACEMENT_3D('',#1558,#1273,#1274);
#1036=AXIS2_PLACEMENT_3D('',#1560,#1275,#1276);
#1037=AXIS2_PLACEMENT_3D('',#1562,#1277,#1278);
#1038=AXIS2_PLACEMENT_3D('',#1564,#1279,#1280);
#1039=AXIS2_PLACEMENT_3D('',#1566,#1281,#1282);
#1040=AXIS2_PLACEMENT_3D('',#1568,#1283,#1284);
#1041=AXIS2_PLACEMENT_3D('',#1570,#1285,#1286);
#1042=AXIS2_PLACEMENT_3D('',#1571,#1287,#1288);
#1043=AXIS2_PLACEMENT_3D('',#1577,#1292,#1293);
#1044=AXIS2_PLACEMENT_3D('',#1580,#1295,#1296);
#1045=AXIS2_PLACEMENT_3D('',#1581,#1297,#1298);
#1046=AXIS2_PLACEMENT_3D('',#1582,#1299,#1300);
#1047=AXIS2_PLACEMENT_3D('',#1585,#1302,#1303);
#1048=AXIS2_PLACEMENT_3D('',#1586,#1304,#1305);
#1049=AXIS2_PLACEMENT_3D('',#1587,#1306,#1307);
#1050=AXIS2_PLACEMENT_3D('',#1590,#1309,#1310);
#1051=AXIS2_PLACEMENT_3D('',#1591,#1311,#1312);
#1052=AXIS2_PLACEMENT_3D('',#1592,#1313,#1314);
#1053=AXIS2_PLACEMENT_3D('',#1595,#1316,#1317);
#1054=AXIS2_PLACEMENT_3D('',#1596,#1318,#1319);
#1055=AXIS2_PLACEMENT_3D('',#1597,#1320,#1321);
#1056=AXIS2_PLACEMENT_3D('',#1600,#1323,#1324);
#1057=AXIS2_PLACEMENT_3D('',#1601,#1325,#1326);
#1058=AXIS2_PLACEMENT_3D('',#1602,#1327,#1328);
#1059=AXIS2_PLACEMENT_3D('',#1605,#1330,#1331);
#1060=AXIS2_PLACEMENT_3D('',#1606,#1332,#1333);
#1061=AXIS2_PLACEMENT_3D('',#1607,#1334,#1335);
#1062=AXIS2_PLACEMENT_3D('',#1610,#1337,#1338);
#1063=AXIS2_PLACEMENT_3D('',#1611,#1339,#1340);
#1064=AXIS2_PLACEMENT_3D('',#1612,#1341,#1342);
#1065=AXIS2_PLACEMENT_3D('',#1615,#1344,#1345);
#1066=AXIS2_PLACEMENT_3D('',#1616,#1346,#1347);
#1067=AXIS2_PLACEMENT_3D('',#1617,#1348,#1349);
#1068=AXIS2_PLACEMENT_3D('',#1621,#1352,#1353);
#1069=AXIS2_PLACEMENT_3D('',#1625,#1356,#1357);
#1070=AXIS2_PLACEMENT_3D('',#1627,#1359,#1360);
#1071=DIRECTION('axis',(0.,0.,1.));
#1072=DIRECTION('refdir',(1.,0.,0.));
#1073=DIRECTION('center_axis',(0.,0.,1.));
#1074=DIRECTION('ref_axis',(-1.,0.,0.));
#1075=DIRECTION('center_axis',(0.,0.,1.));
#1076=DIRECTION('ref_axis',(0.707106781186548,-0.707106781186548,0.));
#1077=DIRECTION('',(1.,0.,0.));
#1078=DIRECTION('center_axis',(0.,0.,1.));
#1079=DIRECTION('ref_axis',(-0.707106781186548,-0.707106781186548,0.));
#1080=DIRECTION('',(0.,-1.,0.));
#1081=DIRECTION('center_axis',(0.,0.,1.));
#1082=DIRECTION('ref_axis',(-0.707106781186546,0.707106781186549,0.));
#1083=DIRECTION('',(-1.,9.10112121836382E-17,0.));
#1084=DIRECTION('center_axis',(0.,0.,1.));
#1085=DIRECTION('ref_axis',(0.707106781186548,0.707106781186548,0.));
#1086=DIRECTION('',(0.,1.,0.));
#1087=DIRECTION('',(-1.,0.,0.));
#1088=DIRECTION('',(0.,-1.,0.));
#1089=DIRECTION('',(1.,0.,0.));
#1090=DIRECTION('',(0.,-1.,0.));
#1091=DIRECTION('',(1.,0.,0.));
#1092=DIRECTION('',(0.,1.,0.));
#1093=DIRECTION('',(1.,0.,0.));
#1094=DIRECTION('',(0.,1.,0.));
#1095=DIRECTION('center_axis',(0.,0.,-1.));
#1096=DIRECTION('ref_axis',(-1.,0.,0.));
#1097=DIRECTION('center_axis',(0.,0.,-1.));
#1098=DIRECTION('ref_axis',(-1.,0.,0.));
#1099=DIRECTION('center_axis',(0.,0.,-1.));
#1100=DIRECTION('ref_axis',(-1.,0.,0.));
#1101=DIRECTION('center_axis',(0.,0.,-1.));
#1102=DIRECTION('ref_axis',(-1.,0.,0.));
#1103=DIRECTION('center_axis',(0.,0.,1.));
#1104=DIRECTION('ref_axis',(1.,0.,0.));
#1105=DIRECTION('center_axis',(1.,0.,0.));
#1106=DIRECTION('ref_axis',(0.,-1.,0.));
#1107=DIRECTION('center_axis',(0.,-1.,0.));
#1108=DIRECTION('ref_axis',(0.,0.,-1.));
#1109=DIRECTION('center_axis',(0.,0.,-1.));
#1110=DIRECTION('ref_axis',(0.707106781186548,-0.707106781186548,0.));
#1111=DIRECTION('center_axis',(0.,-1.,0.));
#1112=DIRECTION('ref_axis',(0.707106781186552,0.,-0.707106781186543));
#1113=DIRECTION('center_axis',(0.,-1.,0.));
#1114=DIRECTION('ref_axis',(0.,0.,-1.));
#1115=DIRECTION('',(0.,-1.,0.));
#1116=DIRECTION('center_axis',(0.,0.,1.));
#1117=DIRECTION('ref_axis',(1.,0.,0.));
#1118=DIRECTION('center_axis',(1.,0.,0.));
#1119=DIRECTION('ref_axis',(0.,0.,-1.));
#1120=DIRECTION('center_axis',(0.,0.,-1.));
#1121=DIRECTION('ref_axis',(0.707106781186548,0.707106781186548,0.));
#1122=DIRECTION('center_axis',(1.,-9.10112121836382E-17,0.));
#1123=DIRECTION('ref_axis',(0.,0.707106781186546,-0.707106781186549));
#1124=DIRECTION('center_axis',(1.,0.,0.));
#1125=DIRECTION('ref_axis',(0.,0.,-1.));
#1126=DIRECTION('',(1.,-9.10112121836382E-17,0.));
#1127=DIRECTION('center_axis',(0.,0.,1.));
#1128=DIRECTION('ref_axis',(1.,0.,0.));
#1129=DIRECTION('center_axis',(0.,1.,0.));
#1130=DIRECTION('ref_axis',(0.,0.,-1.));
#1131=DIRECTION('center_axis',(0.,0.,-1.));
#1132=DIRECTION('ref_axis',(-0.707106781186546,0.707106781186549,0.));
#1133=DIRECTION('center_axis',(0.,1.,0.));
#1134=DIRECTION('ref_axis',(-0.707106781186552,0.,-0.707106781186543));
#1135=DIRECTION('center_axis',(0.,1.,0.));
#1136=DIRECTION('ref_axis',(0.,0.,-1.));
#1137=DIRECTION('',(0.,1.,0.));
#1138=DIRECTION('center_axis',(0.,0.,1.));
#1139=DIRECTION('ref_axis',(1.,0.,0.));
#1140=DIRECTION('center_axis',(-1.,0.,0.));
#1141=DIRECTION('ref_axis',(0.,0.,-1.));
#1142=DIRECTION('center_axis',(0.,0.,-1.));
#1143=DIRECTION('ref_axis',(-0.707106781186548,-0.707106781186548,0.));
#1144=DIRECTION('center_axis',(-1.,0.,0.));
#1145=DIRECTION('ref_axis',(0.,-0.707106781186552,-0.707106781186543));
#1146=DIRECTION('',(-1.,0.,0.));
#1147=DIRECTION('center_axis',(-1.,0.,0.));
#1148=DIRECTION('ref_axis',(0.,-1.,0.));
#1149=DIRECTION('',(0.,0.,-1.));
#1150=DIRECTION('',(0.,-1.,0.));
#1151=DIRECTION('',(0.,0.,1.));
#1152=DIRECTION('center_axis',(0.,0.,1.));
#1153=DIRECTION('ref_axis',(-0.707106781186548,-0.707106781186548,0.));
#1154=DIRECTION('',(0.,0.,1.));
#1155=DIRECTION('center_axis',(0.,0.,-1.));
#1156=DIRECTION('ref_axis',(-0.707106781186548,-0.707106781186548,0.));
#1157=DIRECTION('center_axis',(0.,-1.,0.));
#1158=DIRECTION('ref_axis',(1.,0.,0.));
#1159=DIRECTION('',(0.,0.,-1.));
#1160=DIRECTION('',(1.,0.,0.));
#1161=DIRECTION('center_axis',(0.,0.,1.));
#1162=DIRECTION('ref_axis',(0.707106781186548,-0.707106781186548,0.));
#1163=DIRECTION('',(0.,0.,1.));
#1164=DIRECTION('center_axis',(0.,0.,-1.));
#1165=DIRECTION('ref_axis',(0.707106781186548,-0.707106781186548,0.));
#1166=DIRECTION('center_axis',(0.,0.,1.));
#1167=DIRECTION('ref_axis',(0.707106781186546,0.707106781186549,0.));
#1168=DIRECTION('',(0.,0.,1.));
#1169=DIRECTION('center_axis',(0.,0.,-1.));
#1170=DIRECTION('ref_axis',(0.707106781186546,0.707106781186549,0.));
#1171=DIRECTION('',(0.,0.,-1.));
#1172=DIRECTION('center_axis',(9.10112121836382E-17,1.,0.));
#1173=DIRECTION('ref_axis',(-1.,9.10112121836382E-17,0.));
#1174=DIRECTION('',(0.,0.,-1.));
#1175=DIRECTION('',(-1.,9.10112121836382E-17,0.));
#1176=DIRECTION('',(1.,-9.10112121836382E-17,7.01193489236941E-16));
#1177=DIRECTION('center_axis',(-9.10112121836382E-17,-1.,0.));
#1178=DIRECTION('ref_axis',(1.,0.,0.));
#1179=DIRECTION('',(-1.,9.10112121836382E-17,3.50596744618472E-16));
#1180=DIRECTION('center_axis',(-9.10112121836382E-17,-1.,0.));
#1181=DIRECTION('ref_axis',(1.,0.,0.));
#1182=DIRECTION('center_axis',(0.,0.,1.));
#1183=DIRECTION('ref_axis',(-0.707106781186544,0.707106781186551,0.));
#1184=DIRECTION('center_axis',(0.,0.,-1.));
#1185=DIRECTION('ref_axis',(-0.707106781186544,0.707106781186551,0.));
#1186=DIRECTION('center_axis',(3.50596744618472E-16,0.,1.));
#1187=DIRECTION('ref_axis',(-1.,0.,3.50596744618472E-16));
#1188=DIRECTION('',(1.,0.,-3.50596744618472E-16));
#1189=DIRECTION('',(0.,-1.,0.));
#1190=DIRECTION('',(0.,-1.,0.));
#1191=DIRECTION('center_axis',(0.,-1.,0.));
#1192=DIRECTION('ref_axis',(1.,0.,0.));
#1193=DIRECTION('center_axis',(0.,1.,0.));
#1194=DIRECTION('ref_axis',(1.,0.,0.));
#1195=DIRECTION('',(0.,-1.,0.));
#1196=DIRECTION('center_axis',(7.01193489236941E-16,0.,-1.));
#1197=DIRECTION('ref_axis',(1.,0.,7.01193489236941E-16));
#1198=DIRECTION('',(-1.,0.,-7.01193489236941E-16));
#1199=DIRECTION('',(0.,-1.,0.));
#1200=DIRECTION('center_axis',(0.,-1.,0.));
#1201=DIRECTION('ref_axis',(-1.,0.,-2.03056389731881E-14));
#1202=DIRECTION('center_axis',(0.,1.,0.));
#1203=DIRECTION('ref_axis',(1.,0.,0.));
#1204=DIRECTION('center_axis',(0.,0.,1.));
#1205=DIRECTION('ref_axis',(-1.,0.,0.));
#1206=DIRECTION('center_axis',(0.,0.,-1.));
#1207=DIRECTION('ref_axis',(-1.,0.,0.));
#1208=DIRECTION('',(0.,0.,-1.));
#1209=DIRECTION('center_axis',(0.,0.,1.));
#1210=DIRECTION('ref_axis',(-1.,0.,0.));
#1211=DIRECTION('center_axis',(0.,0.,-1.));
#1212=DIRECTION('ref_axis',(-1.,0.,0.));
#1213=DIRECTION('',(0.,0.,-1.));
#1214=DIRECTION('center_axis',(0.,0.,1.));
#1215=DIRECTION('ref_axis',(-1.,0.,0.));
#1216=DIRECTION('center_axis',(0.,0.,-1.));
#1217=DIRECTION('ref_axis',(-1.,0.,0.));
#1218=DIRECTION('',(0.,0.,-1.));
#1219=DIRECTION('center_axis',(0.,0.,1.));
#1220=DIRECTION('ref_axis',(-1.,0.,0.));
#1221=DIRECTION('center_axis',(0.,0.,-1.));
#1222=DIRECTION('ref_axis',(-1.,0.,0.));
#1223=DIRECTION('',(0.,0.,-1.));
#1224=DIRECTION('center_axis',(-1.,0.,0.));
#1225=DIRECTION('ref_axis',(0.,-1.,0.));
#1226=DIRECTION('',(0.,1.,0.));
#1227=DIRECTION('',(0.,0.,1.));
#1228=DIRECTION('',(0.,-1.,0.));
#1229=DIRECTION('',(0.,0.,1.));
#1230=DIRECTION('center_axis',(-2.25026174271824E-16,-1.,0.));
#1231=DIRECTION('ref_axis',(1.,-2.25026174271824E-16,0.));
#1232=DIRECTION('',(-1.,0.,0.));
#1233=DIRECTION('',(1.,-2.25026174271824E-16,0.));
#1234=DIRECTION('',(0.,0.,1.));
#1235=DIRECTION('center_axis',(-1.,0.,0.));
#1236=DIRECTION('ref_axis',(0.,-1.,0.));
#1237=DIRECTION('',(0.,0.,-1.));
#1238=DIRECTION('',(0.,-1.,0.));
#1239=DIRECTION('',(0.,0.,1.));
#1240=DIRECTION('center_axis',(0.,-1.,0.));
#1241=DIRECTION('ref_axis',(1.,0.,0.));
#1242=DIRECTION('',(1.,0.,0.));
#1243=DIRECTION('',(0.,0.,1.));
#1244=DIRECTION('center_axis',(1.,0.,0.));
#1245=DIRECTION('ref_axis',(0.,1.,0.));
#1246=DIRECTION('',(0.,1.,0.));
#1247=DIRECTION('',(0.,0.,1.));
#1248=DIRECTION('',(0.,0.,1.));
#1249=DIRECTION('center_axis',(0.,-1.,0.));
#1250=DIRECTION('ref_axis',(1.,0.,0.));
#1251=DIRECTION('',(-1.,0.,0.));
#1252=DIRECTION('',(1.,0.,0.));
#1253=DIRECTION('',(0.,0.,1.));
#1254=DIRECTION('center_axis',(1.,0.,0.));
#1255=DIRECTION('ref_axis',(0.,1.,0.));
#1256=DIRECTION('',(0.,-1.,0.));
#1257=DIRECTION('',(0.,1.,0.));
#1258=DIRECTION('',(0.,0.,1.));
#1259=DIRECTION('center_axis',(0.,1.,0.));
#1260=DIRECTION('ref_axis',(-1.,0.,0.));
#1261=DIRECTION('',(1.,0.,0.));
#1262=DIRECTION('',(-1.,0.,0.));
#1263=DIRECTION('center_axis',(1.,0.,0.));
#1264=DIRECTION('ref_axis',(0.,1.,0.));
#1265=DIRECTION('',(0.,1.,0.));
#1266=DIRECTION('center_axis',(0.,0.,1.));
#1267=DIRECTION('ref_axis',(-1.,0.,0.));
#1268=DIRECTION('center_axis',(0.,0.,1.));
#1269=DIRECTION('ref_axis',(1.,0.,0.));
#1270=DIRECTION('',(-1.,0.,0.));
#1271=DIRECTION('center_axis',(0.,0.,-1.));
#1272=DIRECTION('ref_axis',(1.,0.,0.));
#1273=DIRECTION('center_axis',(0.,0.,-1.));
#1274=DIRECTION('ref_axis',(1.,0.,0.));
#1275=DIRECTION('center_axis',(0.,0.,-1.));
#1276=DIRECTION('ref_axis',(1.,0.,0.));
#1277=DIRECTION('center_axis',(0.,0.,-1.));
#1278=DIRECTION('ref_axis',(1.,0.,0.));
#1279=DIRECTION('center_axis',(0.,0.,-1.));
#1280=DIRECTION('ref_axis',(1.,0.,0.));
#1281=DIRECTION('center_axis',(0.,0.,-1.));
#1282=DIRECTION('ref_axis',(1.,0.,0.));
#1283=DIRECTION('center_axis',(0.,0.,-1.));
#1284=DIRECTION('ref_axis',(1.,0.,0.));
#1285=DIRECTION('center_axis',(0.,0.,-1.));
#1286=DIRECTION('ref_axis',(1.,0.,0.));
#1287=DIRECTION('center_axis',(0.,1.,0.));
#1288=DIRECTION('ref_axis',(-1.,0.,0.));
#1289=DIRECTION('',(0.,0.,1.));
#1290=DIRECTION('',(1.,0.,0.));
#1291=DIRECTION('',(0.,0.,1.));
#1292=DIRECTION('center_axis',(0.,0.,-1.));
#1293=DIRECTION('ref_axis',(1.,0.,0.));
#1294=DIRECTION('',(0.,0.,1.));
#1295=DIRECTION('center_axis',(0.,0.,1.));
#1296=DIRECTION('ref_axis',(1.,0.,0.));
#1297=DIRECTION('center_axis',(0.,0.,1.));
#1298=DIRECTION('ref_axis',(1.,0.,0.));
#1299=DIRECTION('center_axis',(0.,0.,-1.));
#1300=DIRECTION('ref_axis',(1.,0.,0.));
#1301=DIRECTION('',(0.,0.,1.));
#1302=DIRECTION('center_axis',(0.,0.,1.));
#1303=DIRECTION('ref_axis',(1.,0.,0.));
#1304=DIRECTION('center_axis',(0.,0.,1.));
#1305=DIRECTION('ref_axis',(1.,0.,0.));
#1306=DIRECTION('center_axis',(0.,0.,-1.));
#1307=DIRECTION('ref_axis',(1.,0.,0.));
#1308=DIRECTION('',(0.,0.,1.));
#1309=DIRECTION('center_axis',(0.,0.,1.));
#1310=DIRECTION('ref_axis',(1.,0.,0.));
#1311=DIRECTION('center_axis',(0.,0.,1.));
#1312=DIRECTION('ref_axis',(1.,0.,0.));
#1313=DIRECTION('center_axis',(0.,0.,-1.));
#1314=DIRECTION('ref_axis',(1.,0.,0.));
#1315=DIRECTION('',(0.,0.,1.));
#1316=DIRECTION('center_axis',(0.,0.,1.));
#1317=DIRECTION('ref_axis',(1.,0.,0.));
#1318=DIRECTION('center_axis',(0.,0.,1.));
#1319=DIRECTION('ref_axis',(1.,0.,0.));
#1320=DIRECTION('center_axis',(0.,0.,-1.));
#1321=DIRECTION('ref_axis',(1.,0.,0.));
#1322=DIRECTION('',(0.,0.,1.));
#1323=DIRECTION('center_axis',(0.,0.,1.));
#1324=DIRECTION('ref_axis',(1.,0.,0.));
#1325=DIRECTION('center_axis',(0.,0.,1.));
#1326=DIRECTION('ref_axis',(1.,0.,0.));
#1327=DIRECTION('center_axis',(0.,0.,-1.));
#1328=DIRECTION('ref_axis',(1.,0.,0.));
#1329=DIRECTION('',(0.,0.,1.));
#1330=DIRECTION('center_axis',(0.,0.,1.));
#1331=DIRECTION('ref_axis',(1.,0.,0.));
#1332=DIRECTION('center_axis',(0.,0.,1.));
#1333=DIRECTION('ref_axis',(1.,0.,0.));
#1334=DIRECTION('center_axis',(0.,0.,-1.));
#1335=DIRECTION('ref_axis',(1.,0.,0.));
#1336=DIRECTION('',(0.,0.,1.));
#1337=DIRECTION('center_axis',(0.,0.,1.));
#1338=DIRECTION('ref_axis',(1.,0.,0.));
#1339=DIRECTION('center_axis',(0.,0.,1.));
#1340=DIRECTION('ref_axis',(1.,0.,0.));
#1341=DIRECTION('center_axis',(0.,0.,-1.));
#1342=DIRECTION('ref_axis',(1.,0.,0.));
#1343=DIRECTION('',(0.,0.,1.));
#1344=DIRECTION('center_axis',(0.,0.,1.));
#1345=DIRECTION('ref_axis',(1.,0.,0.));
#1346=DIRECTION('center_axis',(0.,0.,1.));
#1347=DIRECTION('ref_axis',(1.,0.,0.));
#1348=DIRECTION('center_axis',(1.,0.,0.));
#1349=DIRECTION('ref_axis',(0.,1.,0.));
#1350=DIRECTION('',(0.,0.,1.));
#1351=DIRECTION('',(0.,-1.,0.));
#1352=DIRECTION('center_axis',(0.,-1.,0.));
#1353=DIRECTION('ref_axis',(1.,0.,0.));
#1354=DIRECTION('',(0.,0.,1.));
#1355=DIRECTION('',(-1.,0.,0.));
#1356=DIRECTION('center_axis',(-1.,0.,0.));
#1357=DIRECTION('ref_axis',(0.,-1.,0.));
#1358=DIRECTION('',(0.,1.,0.));
#1359=DIRECTION('center_axis',(0.,0.,1.));
#1360=DIRECTION('ref_axis',(1.,0.,0.));
#1361=CARTESIAN_POINT('',(0.,0.,0.));
#1362=CARTESIAN_POINT('Origin',(219.075,-104.9225,-7.4));
#1363=CARTESIAN_POINT('',(263.87,-155.275,-7.4));
#1364=CARTESIAN_POINT('',(266.87,-152.275,-7.4));
#1365=CARTESIAN_POINT('Origin',(263.87,-152.275,-7.4));
#1366=CARTESIAN_POINT('',(174.28,-155.275,-7.4));
#1367=CARTESIAN_POINT('',(194.6775,-155.275,-7.4));
#1368=CARTESIAN_POINT('',(171.28,-152.275,-7.4));
#1369=CARTESIAN_POINT('Origin',(174.28,-152.275,-7.4));
#1370=CARTESIAN_POINT('',(171.28,-57.57,-7.4));
#1371=CARTESIAN_POINT('',(171.28,-79.24625,-7.4));
#1372=CARTESIAN_POINT('',(174.28,-54.57,-7.4));
#1373=CARTESIAN_POINT('Origin',(174.28,-57.57,-7.4));
#1374=CARTESIAN_POINT('',(263.87,-54.57,-7.4));
#1375=CARTESIAN_POINT('',(243.4725,-54.57,-7.4));
#1376=CARTESIAN_POINT('',(266.87,-57.57,-7.4));
#1377=CARTESIAN_POINT('Origin',(263.87,-57.57,-7.4));
#1378=CARTESIAN_POINT('',(266.87,-130.59875,-7.4));
#1379=CARTESIAN_POINT('',(257.870012248168,-146.27500694769,-7.4));
#1380=CARTESIAN_POINT('',(180.28,-146.275,-7.4));
#1381=CARTESIAN_POINT('',(199.67750428142,-146.27500694769,-7.4));
#1382=CARTESIAN_POINT('',(257.870012248168,-63.570003019413,-7.4));
#1383=CARTESIAN_POINT('',(257.870012248168,-125.598753473845,-7.4));
#1384=CARTESIAN_POINT('',(218.39999511838,-63.57,-7.4));
#1385=CARTESIAN_POINT('',(238.472506124084,-63.570003019413,-7.4));
#1386=CARTESIAN_POINT('',(218.39999511838,-63.0999985896051,-7.4));
#1387=CARTESIAN_POINT('',(218.39999511838,-63.0999985896051,-7.4));
#1388=CARTESIAN_POINT('',(200.9999955073,-63.0999985896051,-7.4));
#1389=CARTESIAN_POINT('',(200.9999955073,-63.0999985896051,-7.4));
#1390=CARTESIAN_POINT('',(200.9999955073,-63.57,-7.4));
#1391=CARTESIAN_POINT('',(200.9999955073,-63.0999985896051,-7.4));
#1392=CARTESIAN_POINT('',(180.28,-63.57,-7.4));
#1393=CARTESIAN_POINT('',(238.472506124084,-63.570003019413,-7.4));
#1394=CARTESIAN_POINT('',(180.280008562841,-84.2462515097065,-7.4));
#1395=CARTESIAN_POINT('',(265.22,-58.57,-7.4));
#1396=CARTESIAN_POINT('Origin',(262.87,-58.57,-7.4));
#1397=CARTESIAN_POINT('',(177.63,-151.275,-7.4));
#1398=CARTESIAN_POINT('Origin',(175.28,-151.275,-7.4));
#1399=CARTESIAN_POINT('',(177.63,-58.57,-7.4));
#1400=CARTESIAN_POINT('Origin',(175.28,-58.57,-7.4));
#1401=CARTESIAN_POINT('',(265.22,-151.275,-7.4));
#1402=CARTESIAN_POINT('Origin',(262.87,-151.275,-7.4));
#1403=CARTESIAN_POINT('Origin',(263.87,-152.275,-6.4));
#1404=CARTESIAN_POINT('',(263.87,-156.275,-6.4));
#1405=CARTESIAN_POINT('Origin',(263.87,-155.275,-6.4));
#1406=CARTESIAN_POINT('',(267.87,-152.275,-6.4));
#1407=CARTESIAN_POINT('Origin',(266.87,-152.275,-6.4));
#1408=CARTESIAN_POINT('Origin',(263.87,-152.275,-6.4));
#1409=CARTESIAN_POINT('Origin',(266.87,-130.59875,-6.4));
#1410=CARTESIAN_POINT('',(267.87,-57.57,-6.4));
#1411=CARTESIAN_POINT('Origin',(266.87,-57.57,-6.4));
#1412=CARTESIAN_POINT('',(267.87,-130.59875,-6.4));
#1413=CARTESIAN_POINT('Origin',(263.87,-57.57,-6.4));
#1414=CARTESIAN_POINT('',(263.87,-53.57,-6.4));
#1415=CARTESIAN_POINT('Origin',(263.87,-54.57,-6.4));
#1416=CARTESIAN_POINT('Origin',(263.87,-57.57,-6.4));
#1417=CARTESIAN_POINT('Origin',(243.4725,-54.57,-6.4));
#1418=CARTESIAN_POINT('',(174.28,-53.57,-6.4));
#1419=CARTESIAN_POINT('Origin',(174.28,-54.57,-6.4));
#1420=CARTESIAN_POINT('',(243.4725,-53.57,-6.4));
#1421=CARTESIAN_POINT('Origin',(174.28,-57.57,-6.4));
#1422=CARTESIAN_POINT('',(170.28,-57.57,-6.4));
#1423=CARTESIAN_POINT('Origin',(171.28,-57.57,-6.4));
#1424=CARTESIAN_POINT('Origin',(174.28,-57.57,-6.4));
#1425=CARTESIAN_POINT('Origin',(171.28,-79.24625,-6.4));
#1426=CARTESIAN_POINT('',(170.28,-152.275,-6.4));
#1427=CARTESIAN_POINT('Origin',(171.28,-152.275,-6.4));
#1428=CARTESIAN_POINT('',(170.28,-79.24625,-6.4));
#1429=CARTESIAN_POINT('Origin',(174.28,-152.275,-6.4));
#1430=CARTESIAN_POINT('',(174.28,-156.275,-6.4));
#1431=CARTESIAN_POINT('Origin',(174.28,-155.275,-6.4));
#1432=CARTESIAN_POINT('Origin',(174.28,-152.275,-6.4));
#1433=CARTESIAN_POINT('Origin',(194.6775,-155.275,-6.4));
#1434=CARTESIAN_POINT('',(194.6775,-156.275,-6.4));
#1435=CARTESIAN_POINT('Origin',(170.28,-53.57,-7.4));
#1436=CARTESIAN_POINT('',(170.28,-152.275,5.6));
#1437=CARTESIAN_POINT('',(170.28,-152.275,-7.4));
#1438=CARTESIAN_POINT('',(170.28,-57.57,5.6));
#1439=CARTESIAN_POINT('',(170.28,-156.275,5.6));
#1440=CARTESIAN_POINT('',(170.28,-57.57,-7.4));
#1441=CARTESIAN_POINT('Origin',(174.28,-152.275,-7.4));
#1442=CARTESIAN_POINT('',(174.28,-156.275,5.6));
#1443=CARTESIAN_POINT('',(174.28,-156.275,-7.4));
#1444=CARTESIAN_POINT('Origin',(174.28,-152.275,5.6));
#1445=CARTESIAN_POINT('Origin',(170.28,-156.275,-7.4));
#1446=CARTESIAN_POINT('',(263.87,-156.275,5.6));
#1447=CARTESIAN_POINT('',(263.87,-156.275,-7.4));
#1448=CARTESIAN_POINT('',(267.87,-156.275,5.6));
#1449=CARTESIAN_POINT('Origin',(263.87,-152.275,-7.4));
#1450=CARTESIAN_POINT('',(267.87,-152.275,5.6));
#1451=CARTESIAN_POINT('',(267.87,-152.275,-7.4));
#1452=CARTESIAN_POINT('Origin',(263.87,-152.275,5.6));
#1453=CARTESIAN_POINT('Origin',(263.87,-57.57,-7.4));
#1454=CARTESIAN_POINT('',(263.87,-53.57,5.6));
#1455=CARTESIAN_POINT('',(263.87,-53.57,-7.4));
#1456=CARTESIAN_POINT('',(267.87,-57.57,5.6));
#1457=CARTESIAN_POINT('Origin',(263.87,-57.57,5.6));
#1458=CARTESIAN_POINT('',(267.87,-57.57,-7.4));
#1459=CARTESIAN_POINT('Origin',(267.87,-53.57,-7.4));
#1460=CARTESIAN_POINT('',(174.28,-53.57,5.6));
#1461=CARTESIAN_POINT('',(174.28,-53.57,-7.4));
#1462=CARTESIAN_POINT('',(170.28,-53.57,5.6));
#1463=CARTESIAN_POINT('',(204.960009960691,-53.57,-6.29000013251789));
#1464=CARTESIAN_POINT('',(214.460009960691,-53.57,-6.29000013251789));
#1465=CARTESIAN_POINT('',(236.415004980345,-53.57,-6.29000013251787));
#1466=CARTESIAN_POINT('',(214.460009960691,-53.57,0.709999867482112));
#1467=CARTESIAN_POINT('Origin',(214.460009960691,-53.57,-2.7900001325179));
#1468=CARTESIAN_POINT('',(204.960009960691,-53.57,0.709999867482115));
#1469=CARTESIAN_POINT('',(241.165004980345,-53.57,0.709999867482102));
#1470=CARTESIAN_POINT('Origin',(204.960009960691,-53.57,-2.79000013251789));
#1471=CARTESIAN_POINT('Origin',(174.28,-57.57,-7.4));
#1472=CARTESIAN_POINT('Origin',(174.28,-57.57,5.6));
#1473=CARTESIAN_POINT('Origin',(214.460009960691,0.,0.709999867482112));
#1474=CARTESIAN_POINT('',(204.960009960691,-63.0999985896051,0.709999867482115));
#1475=CARTESIAN_POINT('',(214.460009960691,-63.0999985896051,0.709999867482112));
#1476=CARTESIAN_POINT('',(207.730002733995,-63.0999985896051,0.709999867482114));
#1477=CARTESIAN_POINT('',(204.960009960691,0.,0.709999867482115));
#1478=CARTESIAN_POINT('',(214.460009960691,0.,0.709999867482112));
#1479=CARTESIAN_POINT('Origin',(214.460009960691,0.,-2.7900001325179));
#1480=CARTESIAN_POINT('',(214.460009960691,-63.0999985896051,-6.29000013251789));
#1481=CARTESIAN_POINT('Origin',(214.460009960691,-63.0999985896051,-2.7900001325179));
#1482=CARTESIAN_POINT('',(214.460009960691,0.,-6.29000013251789));
#1483=CARTESIAN_POINT('Origin',(204.960009960691,0.,-6.29000013251789));
#1484=CARTESIAN_POINT('',(204.960009960691,-63.0999985896051,-6.29000013251789));
#1485=CARTESIAN_POINT('',(202.980002733995,-63.0999985896051,-6.29000013251789));
#1486=CARTESIAN_POINT('',(204.960009960691,0.,-6.29000013251789));
#1487=CARTESIAN_POINT('Origin',(204.960009960691,0.,-2.79000013251789));
#1488=CARTESIAN_POINT('Origin',(204.960009960691,-63.0999985896051,-2.79000013251789));
#1489=CARTESIAN_POINT('Origin',(262.87,-151.275,-7.4));
#1490=CARTESIAN_POINT('',(265.22,-151.275,5.6));
#1491=CARTESIAN_POINT('Origin',(262.87,-151.275,5.6));
#1492=CARTESIAN_POINT('',(265.22,-151.275,-7.4));
#1493=CARTESIAN_POINT('Origin',(175.28,-58.57,-7.4));
#1494=CARTESIAN_POINT('',(177.63,-58.57,5.6));
#1495=CARTESIAN_POINT('Origin',(175.28,-58.57,5.6));
#1496=CARTESIAN_POINT('',(177.63,-58.57,-7.4));
#1497=CARTESIAN_POINT('Origin',(175.28,-151.275,-7.4));
#1498=CARTESIAN_POINT('',(177.63,-151.275,5.6));
#1499=CARTESIAN_POINT('Origin',(175.28,-151.275,5.6));
#1500=CARTESIAN_POINT('',(177.63,-151.275,-7.4));
#1501=CARTESIAN_POINT('Origin',(262.87,-58.57,-7.4));
#1502=CARTESIAN_POINT('',(265.22,-58.57,5.6));
#1503=CARTESIAN_POINT('Origin',(262.87,-58.57,5.6));
#1504=CARTESIAN_POINT('',(265.22,-58.57,-7.4));
#1505=CARTESIAN_POINT('Origin',(257.87,-63.57,-7.4));
#1506=CARTESIAN_POINT('',(257.87,-146.27500694769,-4.41));
#1507=CARTESIAN_POINT('',(257.87,-63.570003019413,-4.41));
#1508=CARTESIAN_POINT('',(257.87,-84.2462524917757,-4.41));
#1509=CARTESIAN_POINT('',(257.87,-146.275,5.6));
#1510=CARTESIAN_POINT('',(257.87,-146.275,-7.4));
#1511=CARTESIAN_POINT('',(257.87,-63.57,5.6));
#1512=CARTESIAN_POINT('',(257.87,-146.275,5.6));
#1513=CARTESIAN_POINT('',(257.87,-63.57,-7.4));
#1514=CARTESIAN_POINT('Origin',(218.39999511838,-63.57,-7.4));
#1515=CARTESIAN_POINT('',(218.39999511838,-63.57,-4.41));
#1516=CARTESIAN_POINT('',(180.280008562841,-63.570003019413,-4.41));
#1517=CARTESIAN_POINT('',(218.39999511838,-63.57,5.6));
#1518=CARTESIAN_POINT('',(218.39999511838,-63.57,5.6));
#1519=CARTESIAN_POINT('',(218.39999511838,-63.57,-7.4));
#1520=CARTESIAN_POINT('Origin',(218.39999511838,-63.0999985896051,-7.4));
#1521=CARTESIAN_POINT('',(218.39999511838,-63.570003019413,-7.405));
#1522=CARTESIAN_POINT('',(218.39999511838,-63.0999985896051,5.6));
#1523=CARTESIAN_POINT('',(218.39999511838,-63.0999985896051,5.6));
#1524=CARTESIAN_POINT('',(218.39999511838,-63.0999985896051,-7.4));
#1525=CARTESIAN_POINT('Origin',(200.9999955073,-63.0999985896051,-7.4));
#1526=CARTESIAN_POINT('',(200.9999955073,-63.0999985896051,5.6));
#1527=CARTESIAN_POINT('',(200.9999955073,-63.0999985896051,5.6));
#1528=CARTESIAN_POINT('',(200.9999955073,-63.0999985896051,-7.4));
#1529=CARTESIAN_POINT('Origin',(200.9999955073,-63.57,-7.4));
#1530=CARTESIAN_POINT('',(200.9999955073,-63.57,5.6));
#1531=CARTESIAN_POINT('',(200.9999955073,-63.0999985896051,5.6));
#1532=CARTESIAN_POINT('',(200.9999955073,-63.570003019413,-4.41));
#1533=CARTESIAN_POINT('',(200.9999955073,-63.57,-7.4));
#1534=CARTESIAN_POINT('',(200.9999955073,-63.570003019413,-7.405));
#1535=CARTESIAN_POINT('Origin',(180.28,-63.57,-7.4));
#1536=CARTESIAN_POINT('',(180.280008562841,-63.570003019413,-4.41));
#1537=CARTESIAN_POINT('',(180.280008562841,-63.570003019413,-4.41));
#1538=CARTESIAN_POINT('',(180.28,-63.57,5.6));
#1539=CARTESIAN_POINT('',(180.28,-63.57,5.6));
#1540=CARTESIAN_POINT('',(180.28,-63.57,-7.4));
#1541=CARTESIAN_POINT('Origin',(180.28,-146.275,-7.4));
#1542=CARTESIAN_POINT('',(180.280008562841,-146.27500694769,-4.41));
#1543=CARTESIAN_POINT('',(180.280008562841,-146.27500694769,-4.41));
#1544=CARTESIAN_POINT('',(180.28,-146.275,5.6));
#1545=CARTESIAN_POINT('',(180.28,-146.275,5.6));
#1546=CARTESIAN_POINT('',(180.28,-146.275,-7.4));
#1547=CARTESIAN_POINT('Origin',(257.87,-146.275,-7.4));
#1548=CARTESIAN_POINT('',(257.870012248168,-146.27500694769,-4.41));
#1549=CARTESIAN_POINT('',(257.87,-146.275,5.6));
#1550=CARTESIAN_POINT('Origin',(267.87,-156.275,-7.4));
#1551=CARTESIAN_POINT('',(267.87,-53.57,5.6));
#1552=CARTESIAN_POINT('Origin',(219.075,-104.9225,5.6));
#1553=CARTESIAN_POINT('Origin',(219.075010405504,-104.922504983551,-4.41));
#1554=CARTESIAN_POINT('',(180.280008562841,-63.570003019413,-4.41));
#1555=CARTESIAN_POINT('',(228.000003471971,-80.0000011920929,-4.41));
#1556=CARTESIAN_POINT('Origin',(233.000003471971,-80.0000011920929,-4.41));
#1557=CARTESIAN_POINT('',(216.500003263354,-127.000001892447,-4.41));
#1558=CARTESIAN_POINT('Origin',(219.000003263354,-127.000001892447,-4.41));
#1559=CARTESIAN_POINT('',(186.000002846122,-78.0000011622906,-4.41));
#1560=CARTESIAN_POINT('Origin',(191.000002846122,-78.0000011622906,-4.41));
#1561=CARTESIAN_POINT('',(216.500003263354,-108.000001609325,-4.41));
#1562=CARTESIAN_POINT('Origin',(219.000003263354,-108.000001609325,-4.41));
#1563=CARTESIAN_POINT('',(235.500003546476,-108.000001609325,-4.41));
#1564=CARTESIAN_POINT('Origin',(238.000003546476,-108.000001609325,-4.41));
#1565=CARTESIAN_POINT('',(197.500002980232,-127.000001892447,-4.41));
#1566=CARTESIAN_POINT('Origin',(200.000002980232,-127.000001892447,-4.41));
#1567=CARTESIAN_POINT('',(197.500002980232,-108.000001609325,-4.41));
#1568=CARTESIAN_POINT('Origin',(200.000002980232,-108.000001609325,-4.41));
#1569=CARTESIAN_POINT('',(236.500003561378,-127.000001892447,-4.41));
#1570=CARTESIAN_POINT('Origin',(239.000003561378,-127.000001892447,-4.41));
#1571=CARTESIAN_POINT('Origin',(257.870012248168,-63.570003019413,-7.41));
#1572=CARTESIAN_POINT('',(257.870012248168,-63.570003019413,-7.41));
#1573=CARTESIAN_POINT('',(257.870012248168,-63.570003019413,-7.41));
#1574=CARTESIAN_POINT('',(180.280008562841,-63.570003019413,-7.41));
#1575=CARTESIAN_POINT('',(180.280008562841,-63.570003019413,-7.41));
#1576=CARTESIAN_POINT('',(180.280008562841,-63.570003019413,-7.41));
#1577=CARTESIAN_POINT('Origin',(233.000003471971,-80.0000011920929,0.));
#1578=CARTESIAN_POINT('',(228.000003471971,-80.0000011920929,0.));
#1579=CARTESIAN_POINT('',(228.000003471971,-80.0000011920929,0.));
#1580=CARTESIAN_POINT('Origin',(233.000003471971,-80.0000011920929,0.));
#1581=CARTESIAN_POINT('Origin',(233.000003471971,-80.0000011920929,0.));
#1582=CARTESIAN_POINT('Origin',(219.000003263354,-127.000001892447,0.));
#1583=CARTESIAN_POINT('',(216.500003263354,-127.000001892447,0.));
#1584=CARTESIAN_POINT('',(216.500003263354,-127.000001892447,0.));
#1585=CARTESIAN_POINT('Origin',(219.000003263354,-127.000001892447,0.));
#1586=CARTESIAN_POINT('Origin',(219.000003263354,-127.000001892447,0.));
#1587=CARTESIAN_POINT('Origin',(191.000002846122,-78.0000011622906,0.));
#1588=CARTESIAN_POINT('',(186.000002846122,-78.0000011622906,0.));
#1589=CARTESIAN_POINT('',(186.000002846122,-78.0000011622906,0.));
#1590=CARTESIAN_POINT('Origin',(191.000002846122,-78.0000011622906,0.));
#1591=CARTESIAN_POINT('Origin',(191.000002846122,-78.0000011622906,0.));
#1592=CARTESIAN_POINT('Origin',(219.000003263354,-108.000001609325,0.));
#1593=CARTESIAN_POINT('',(216.500003263354,-108.000001609325,0.));
#1594=CARTESIAN_POINT('',(216.500003263354,-108.000001609325,0.));
#1595=CARTESIAN_POINT('Origin',(219.000003263354,-108.000001609325,0.));
#1596=CARTESIAN_POINT('Origin',(219.000003263354,-108.000001609325,0.));
#1597=CARTESIAN_POINT('Origin',(238.000003546476,-108.000001609325,0.));
#1598=CARTESIAN_POINT('',(235.500003546476,-108.000001609325,0.));
#1599=CARTESIAN_POINT('',(235.500003546476,-108.000001609325,0.));
#1600=CARTESIAN_POINT('Origin',(238.000003546476,-108.000001609325,0.));
#1601=CARTESIAN_POINT('Origin',(238.000003546476,-108.000001609325,0.));
#1602=CARTESIAN_POINT('Origin',(200.000002980232,-127.000001892447,0.));
#1603=CARTESIAN_POINT('',(197.500002980232,-127.000001892447,0.));
#1604=CARTESIAN_POINT('',(197.500002980232,-127.000001892447,0.));
#1605=CARTESIAN_POINT('Origin',(200.000002980232,-127.000001892447,0.));
#1606=CARTESIAN_POINT('Origin',(200.000002980232,-127.000001892447,0.));
#1607=CARTESIAN_POINT('Origin',(200.000002980232,-108.000001609325,0.));
#1608=CARTESIAN_POINT('',(197.500002980232,-108.000001609325,0.));
#1609=CARTESIAN_POINT('',(197.500002980232,-108.000001609325,0.));
#1610=CARTESIAN_POINT('Origin',(200.000002980232,-108.000001609325,0.));
#1611=CARTESIAN_POINT('Origin',(200.000002980232,-108.000001609325,0.));
#1612=CARTESIAN_POINT('Origin',(239.000003561378,-127.000001892447,0.));
#1613=CARTESIAN_POINT('',(236.500003561378,-127.000001892447,0.));
#1614=CARTESIAN_POINT('',(236.500003561378,-127.000001892447,0.));
#1615=CARTESIAN_POINT('Origin',(239.000003561378,-127.000001892447,0.));
#1616=CARTESIAN_POINT('Origin',(239.000003561378,-127.000001892447,0.));
#1617=CARTESIAN_POINT('Origin',(257.870012248168,-146.27500694769,-7.41));
#1618=CARTESIAN_POINT('',(257.870012248168,-146.27500694769,-7.41));
#1619=CARTESIAN_POINT('',(257.870012248168,-146.27500694769,-7.41));
#1620=CARTESIAN_POINT('',(257.870012248168,-63.570003019413,-7.41));
#1621=CARTESIAN_POINT('Origin',(180.280008562841,-146.27500694769,-7.41));
#1622=CARTESIAN_POINT('',(180.280008562841,-146.27500694769,-7.41));
#1623=CARTESIAN_POINT('',(180.280008562841,-146.27500694769,-7.41));
#1624=CARTESIAN_POINT('',(257.870012248168,-146.27500694769,-7.41));
#1625=CARTESIAN_POINT('Origin',(180.280008562841,-63.570003019413,-7.41));
#1626=CARTESIAN_POINT('',(180.280008562841,-146.27500694769,-7.41));
#1627=CARTESIAN_POINT('Origin',(219.075010405504,-104.922504983551,-7.41));
#1628=UNCERTAINTY_MEASURE_WITH_UNIT(LENGTH_MEASURE(0.01),#1632,
'DISTANCE_ACCURACY_VALUE',
'Maximum model space distance between geometric entities at asserted c
onnectivities');
#1629=UNCERTAINTY_MEASURE_WITH_UNIT(LENGTH_MEASURE(0.01),#1632,
'DISTANCE_ACCURACY_VALUE',
'Maximum model space distance between geometric entities at asserted c
onnectivities');
#1630=(
GEOMETRIC_REPRESENTATION_CONTEXT(3)
GLOBAL_UNCERTAINTY_ASSIGNED_CONTEXT((#1628))
GLOBAL_UNIT_ASSIGNED_CONTEXT((#1632,#1634,#1635))
REPRESENTATION_CONTEXT('','3D')
);
#1631=(
GEOMETRIC_REPRESENTATION_CONTEXT(3)
GLOBAL_UNCERTAINTY_ASSIGNED_CONTEXT((#1629))
GLOBAL_UNIT_ASSIGNED_CONTEXT((#1632,#1634,#1635))
REPRESENTATION_CONTEXT('','3D')
);
#1632=(
LENGTH_UNIT()
NAMED_UNIT(*)
SI_UNIT(.MILLI.,.METRE.)
);
#1633=(
LENGTH_UNIT()
NAMED_UNIT(*)
SI_UNIT($,.METRE.)
);
#1634=(
NAMED_UNIT(*)
PLANE_ANGLE_UNIT()
SI_UNIT($,.RADIAN.)
);
#1635=(
NAMED_UNIT(*)
SI_UNIT($,.STERADIAN.)
SOLID_ANGLE_UNIT()
);
#1636=SHAPE_DEFINITION_REPRESENTATION(#1637,#1638);
#1637=PRODUCT_DEFINITION_SHAPE('',$,#1640);
#1638=SHAPE_REPRESENTATION('',(#966),#1630);
#1639=PRODUCT_DEFINITION_CONTEXT('part definition',#1644,'design');
#1640=PRODUCT_DEFINITION('2026-06-09-19-00-54-056','FusionComponent',#1641,
#1639);
#1641=PRODUCT_DEFINITION_FORMATION('',$,#1646);
#1642=PRODUCT_RELATED_PRODUCT_CATEGORY('FusionComponent',
'FusionComponent',(#1646));
#1643=APPLICATION_PROTOCOL_DEFINITION('international standard',
'automotive_design',2009,#1644);
#1644=APPLICATION_CONTEXT(
'Core Data for Automotive Mechanical Design Process');
#1645=PRODUCT_CONTEXT('part definition',#1644,'mechanical');
#1646=PRODUCT('2026-06-09-19-00-54-056','FusionComponent',$,(#1645));
#1647=PRESENTATION_STYLE_ASSIGNMENT((#1648));
#1648=SURFACE_STYLE_USAGE(.BOTH.,#1649);
#1649=SURFACE_SIDE_STYLE('',(#1650));
#1650=SURFACE_STYLE_FILL_AREA(#1651);
#1651=FILL_AREA_STYLE('Steel - Satin',(#1652));
#1652=FILL_AREA_STYLE_COLOUR('Steel - Satin',#1653);
#1653=COLOUR_RGB('Steel - Satin',0.627450980392157,0.627450980392157,0.627450980392157);
ENDSEC;
END-ISO-10303-21;
